<svg width="70" height="64" viewBox="0 0 70 64" fill="none" xmlns="http://www.w3.org/2000/svg">
    <path d="M69.2793 7.06256C69.2723 6.9919 69.2592 6.92198 69.2402 6.85357C69.195 6.71434 69.1292 6.58268 69.0449 6.46294C68.9872 6.39085 68.9217 6.32535 68.8496 6.26763C68.8145 6.23834 68.793 6.19927 68.7539 6.17193L60.4219 0.587945C60.2618 0.482224 60.0792 0.415344 59.8887 0.392632C59.2754 0.316461 45.0156 -1.3144 35 5.11138C24.9824 -1.3144 10.7285 0.316461 10.1113 0.392632C9.92082 0.415344 9.73823 0.482224 9.57812 0.587945L1.24219 6.16607C1.20313 6.19341 1.18164 6.23248 1.14648 6.26177C1.07446 6.31957 1.00897 6.38506 0.951172 6.45709C0.911446 6.51038 0.876791 6.56726 0.847656 6.62701C0.8081 6.6995 0.77666 6.77614 0.753907 6.85552C0.734606 6.92377 0.722174 6.99378 0.716797 7.06451C0.705993 7.10424 0.698158 7.14471 0.693359 7.1856V54.2227C0.693364 54.3961 0.73009 54.5676 0.80112 54.7258C0.87215 54.884 0.975874 55.0254 1.10547 55.1407C1.23585 55.2573 1.38999 55.3442 1.55724 55.3955C1.7245 55.4468 1.90088 55.4611 2.07422 55.4376C27.6602 52.2344 33.8613 63.0899 33.9102 63.1934C33.9219 63.2168 33.9473 63.2247 33.959 63.2461C34.0557 63.4108 34.1894 63.5505 34.3496 63.6544C34.3789 63.6719 34.4121 63.6797 34.4434 63.6954C34.5239 63.743 34.6098 63.781 34.6992 63.8086C34.787 63.8285 34.8767 63.839 34.9668 63.8399C34.9785 63.8399 34.9883 63.8497 34.9981 63.8497C35.0968 63.8489 35.1952 63.8364 35.291 63.8126C35.3994 63.7825 35.5033 63.7378 35.5996 63.6797L35.6269 63.6661C35.7953 63.5632 35.9355 63.4203 36.0352 63.2501C36.0469 63.2325 36.0684 63.2247 36.0801 63.2051C36.1387 63.0958 42.3418 52.2403 67.9258 55.4415C68.098 55.4644 68.2732 55.4499 68.4394 55.399C68.6056 55.3481 68.7588 55.262 68.8887 55.1465C69.0183 55.0313 69.122 54.8899 69.193 54.7317C69.2641 54.5735 69.3008 54.402 69.3008 54.2286V7.18365C69.2957 7.14294 69.2885 7.10253 69.2793 7.06256ZM10.6855 2.79107C12.7578 2.59576 25.7559 1.64849 34.3027 7.58599C34.5075 7.72813 34.7508 7.8043 35 7.8043C35.2492 7.8043 35.4925 7.72813 35.6973 7.58599C44.2441 1.64849 57.2441 2.59771 59.3144 2.79107L63.3672 5.50396C45.0391 4.30084 37.5195 10.5294 34.9981 13.5118C32.4707 10.5372 24.9414 4.33209 6.62695 5.50396L10.6855 2.79107ZM11.1113 52.4004C8.4494 52.4079 5.78986 52.5605 3.14453 52.8575V8.27154C25.8008 5.73248 32.7402 14.4024 33.7773 15.9337V59.2637C30.7031 56.4141 24.0762 52.3926 11.1113 52.3926V52.4004ZM66.8555 52.8575C48.5371 50.8575 39.8828 55.8711 36.2227 59.2657V15.9337C37.2617 14.4004 44.2109 5.74224 66.8555 8.27154V52.8575Z" />
</svg>
