<svg viewBox="0 0 70 64" xmlns="http://www.w3.org/2000/svg"><path d="m69.3 7.1s0-.1 0-.2-.1-.3-.2-.4c0 0-.1-.1-.2-.2l-8.5-5.7c-.2-.1-.3-.2-.5-.2-.6 0-14.9-1.7-24.9 4.7-10-6.4-24.3-4.8-24.9-4.7-.2 0-.4 0-.5.2l-8.4 5.6s0 0 0 0-.1.1-.2.2c0 0 0 .1-.1.2v.2.2.1 47c0 .2 0 .3.1.5 0 .2.2.3.3.4s.3.2.5.3h.5c25.6-3.2 31.8 7.7 31.8 7.8 0 .2.2.3.4.4s.2 0 .3.1h.3.3c.1 0 .2 0 .3-.1.2-.1.3-.3.4-.4 0-.1 6.3-11 31.8-7.8h.5c.2 0 .3-.1.4-.3.1-.1.2-.3.3-.4 0-.2.1-.3.1-.5v-46.9s0 0 0-.1zm-58.6-4.3c2.1-.2 15.1-1.1 23.6 4.8.2.1.4.2.7.2s.5 0 .7-.2c8.5-5.9 21.5-5 23.6-4.8l4.1 2.7c-18.3-1.2-25.8 5-28.4 8-2.5-3-10.1-9.2-28.4-8l4.1-2.7zm.4 49.6c-2.7 0-5.3.2-8 .5v-44.6c22.7-2.5 29.6 6.1 30.6 7.7v43.3c-3.1-2.8-9.7-6.9-22.7-6.9zm55.7.5c-18.3-2-27 3-30.6 6.4v-43.4c1-1.5 8-10.2 30.6-7.7v44.6z"/></svg>