<svg viewBox="0 0 100 100" xmlns="http://www.w3.org/2000/svg"><path d="m63.2 30.8c0 1.2-.9 2.1-2.1 2.1h-12.8v6.2c0 1.2-.9 2.1-2.1 2.1s-2.1-.9-2.1-2.1v-6.2h-5.1c-1.2 0-2.1-.9-2.1-2.1s.9-2.1 2.1-2.1h22.1c1.2 0 2.1.9 2.1 2.1zm15.8 59.7h-12.9c-1.7 0-3.2-.7-4.3-1.8-3.4 1.2-7.4 1.8-11.8 1.8-9.5 0-16.6-2.3-21.2-6.9-4.1-4.1-6.1-10-6.1-17.9 0-13.8 6-25.5 17.6-34.8l-6.8-12.9c-.4-.7-.4-1.5-.2-2.3.3-.8.8-1.4 1.6-1.8.4-.2.9-.3 1.4-.3 2.8-.2 4.7-.2 5.8 0 6.5 1.6 9.6 1.6 16.1 0 .6-.1 1.8-.3 5.6 0 1.7 0 3.1 1.4 3.1 3s-.1 1-.4 1.4l-6.9 12.8c9.7 7.5 15.4 16.7 17.1 27.6h2.4c3.3 0 6 2.7 6 6s-2.7 6-6 6h-.9c1 1.1 1.5 2.5 1.5 4s-.6 2.9-1.5 4h.8c3.3 0 6 2.7 6 6s-2.7 6-6 6zm-15.1-2.7c.6.4 1.4.7 2.2.7h12.9c2.2 0 4-1.8 4-4s-1.8-4-4-4h-6.2s0 .1-.1.2c-2.2 3.1-5.2 5.5-8.7 7.2zm-24.1-72.2c-.8 0-1.9 0-3.4.2-.3 0-.5 0-.6.1-.3.1-.5.3-.6.6v.7l7.6 14.4-.7.5c-11.5 8.9-17.4 20.3-17.5 33.7 0 7.3 1.7 12.7 5.5 16.5 4.2 4.2 10.8 6.3 19.8 6.3s7.7-.6 10.7-1.5c-.3-.8-.5-1.6-.5-2.5 0-1.5.6-2.9 1.5-4h-.8c-3.3 0-6-2.7-6-6s2.7-6 6-6h.9c-1-1.1-1.5-2.5-1.5-4 0-3.3 2.7-6 6-6h8.5c-1.7-10.5-7.4-19.4-17-26.6l-.7-.5 7.7-14.3c0-.1.1-.3.1-.4 0-.6-.5-1-1.1-1-3.3-.2-4.5-.1-5 0-6.8 1.6-10.3 1.6-17.1 0-.3 0-.9-.1-1.8-.1zm26.4 65c-2.2 0-4 1.8-4 4s.1 1.2.4 1.8c3.4-1.5 6-3.5 7.8-5.8zm-5.3-10c-2.2 0-4 1.8-4 4s1.8 4 4 4h10.9c1.7-2.7 2.5-5.5 3-7.9-.3 0-.7-.1-1-.1zm15.7 1.2c-.5 2.1-1.2 4.5-2.5 6.8 2.1-.2 3.7-1.9 3.7-4s-.5-2.1-1.2-2.8zm.5-3.2h2.1c2.2 0 4-1.8 4-4s-1.8-4-4-4h-2.2c.2 1.7.3 3.4.3 5.2 0 .7 0 1.6-.2 2.8zm-10.8-8c-2.2 0-4 1.8-4 4s1.8 4 4 4h8.8c.1-1.1.2-2.1.2-2.8 0-1.8 0-3.5-.3-5.2z"/></svg>