<svg width="100" height="100" viewBox="0 0 100 100" fill="none" xmlns="http://www.w3.org/2000/svg">
    <path fill-rule="evenodd" clip-rule="evenodd" d="M41.8307 14.7529C48.4656 16.3512 51.7831 16.3512 58.418 14.7529C59.2412 14.5546 60.9976 14.5546 63.6871 14.7529C64.8724 14.7529 65.8333 15.6608 65.8333 16.7807C65.8333 17.0992 65.7539 17.4132 65.6016 17.6973L58.3469 31.2255C70.3626 40.1814 76.33 51.7072 76.2492 65.8028C76.211 72.4649 73.3326 89.5833 50 89.5833C26.6674 89.5833 23.6934 75.6251 23.7508 65.8028C23.8316 51.965 29.7809 40.4651 41.5987 31.3033L34.3937 17.6876C33.8636 16.6859 34.2934 15.4678 35.3536 14.967C35.6516 14.8262 35.9802 14.7529 36.3134 14.7529C39.0527 14.5267 40.8918 14.5267 41.8307 14.7529Z" stroke="#6b7280" stroke-width="2"/>
    <path d="M48.3332 32.0833C48.3332 30.9327 47.4004 30 46.2498 30C45.0992 30 44.1665 30.9327 44.1665 32.0833V39.1667C44.1665 40.3173 45.0992 41.25 46.2498 41.25C47.4004 41.25 48.3332 40.3173 48.3332 39.1667V32.0833Z" fill="#6b7280"/>
    <path d="M61.1252 28.75H39.0418C37.8912 28.75 36.9585 29.6827 36.9585 30.8333C36.9585 31.9839 37.8912 32.9167 39.0418 32.9167H61.1252C62.2758 32.9167 63.2085 31.9839 63.2085 30.8333C63.2085 29.6827 62.2758 28.75 61.1252 28.75Z" fill="#6b7280"/>
    <path d="M79.0417 79.5833H66.125C63.3636 79.5833 61.125 81.8218 61.125 84.5833C61.125 87.3447 63.3636 89.5833 66.125 89.5833H79.0417C81.8031 89.5833 84.0417 87.3447 84.0417 84.5833C84.0417 81.8218 81.8031 79.5833 79.0417 79.5833Z" stroke="#6b7280" stroke-width="2"/>
    <path d="M73.7502 69.5833H60.8335C58.0721 69.5833 55.8335 71.8218 55.8335 74.5833C55.8335 77.3447 58.0721 79.5833 60.8335 79.5833H73.7502C76.5116 79.5833 78.7502 77.3447 78.7502 74.5833C78.7502 71.8218 76.5116 69.5833 73.7502 69.5833Z" stroke="#6b7280" stroke-width="2"/>
    <path d="M79.1667 59.5833H66.25C63.4886 59.5833 61.25 61.8218 61.25 64.5833C61.25 67.3447 63.4886 69.5833 66.25 69.5833H79.1667C81.9281 69.5833 84.1667 67.3447 84.1667 64.5833C84.1667 61.8218 81.9281 59.5833 79.1667 59.5833Z" stroke="#6b7280" stroke-width="2"/>
</svg>
