<svg width="100" height="84" viewBox="0 0 100 84" fill="none" xmlns="http://www.w3.org/2000/svg">
    <path d="M100 33.1861C100 33.0822 99.9843 32.9825 99.9612 32.8858V21.7938C99.9614 21.7151 99.9522 21.6367 99.9378 21.5591C99.9347 21.5416 99.9314 21.5244 99.9275 21.5074C99.911 21.4352 99.8902 21.3637 99.8614 21.2943C99.8586 21.2874 99.8545 21.281 99.8514 21.2743C99.8324 21.2311 99.8126 21.1882 99.7884 21.1468L91.1941 6.29241V3.57551C91.1941 1.63314 89.6139 0.0529785 87.6715 0.0529785H60.2871C58.3448 0.0529785 56.7649 1.63314 56.7649 3.57551V6.29549L48.1723 21.1468C48.1494 21.1866 48.1304 21.2278 48.1119 21.2694C48.1078 21.2784 48.1026 21.2869 48.0988 21.2959C48.0705 21.364 48.0499 21.4342 48.0337 21.5051C48.0294 21.5239 48.026 21.5427 48.0224 21.5617C48.0088 21.6373 47.9995 21.7136 47.9993 21.7902V21.7905V33.1863V53.167H42.7187V42.1781C42.7187 39.2494 41.5969 36.478 39.5594 34.3745C37.9959 32.7596 37.2983 31.4637 37.1538 29.8183H37.1602C37.8702 29.8183 38.4455 29.2427 38.4455 28.533V23.6308C38.4455 21.9205 37.0541 20.5291 35.3438 20.5291H26.2217C24.5114 20.5291 23.12 21.9205 23.12 23.6308V28.533C23.12 29.2427 23.6953 29.8183 24.4053 29.8183H24.5312C24.387 31.4637 23.6894 32.7596 22.1254 34.3742C20.0879 36.478 18.9661 39.2494 18.9661 42.1781V53.167H14.0292C8.96815 53.167 4.85103 57.2844 4.85103 62.3452V75.7372H4.76132C2.13619 75.7369 0 77.8731 0 80.4985V82.6352C0 83.3449 0.575307 83.9205 1.28531 83.9205H66.1695V83.9467H98.6756C99.3856 83.9467 99.9609 83.3711 99.9609 82.6614V71.5095C99.9843 71.4128 99.9997 71.3131 99.9997 71.2092V33.1861H100ZM50.5704 23.0758H79.8566V31.901H50.5704V23.0758ZM89.909 9.20416L96.4474 20.5052H83.3706L89.909 9.20416ZM82.4272 34.4714H97.3903V69.9239H82.4272V34.4714ZM82.4272 31.9007V23.0755H97.3903V31.9007H82.4272ZM59.3355 3.57551C59.3355 3.05059 59.7625 2.62361 60.2871 2.62361H87.6715C88.1964 2.62361 88.6234 3.05059 88.6234 3.57551V5.35516H59.3355V3.57551ZM58.7915 7.92604H87.6785L80.4005 20.5052H51.5138L58.7915 7.92604ZM50.5704 34.4714H79.8566V69.9239H63.3657V62.6159C63.9729 62.7228 64.5901 62.7784 65.2135 62.7784C71.0475 62.7784 75.7942 58.032 75.7942 52.1977C75.7942 46.3634 71.0475 41.6169 65.2135 41.6169C59.3794 41.6169 54.6328 46.3634 54.6328 52.1977C54.6328 52.527 54.6536 52.8544 54.6837 53.1807C54.5192 53.1719 54.3539 53.1668 54.1873 53.1668H50.5702L50.5704 34.4714ZM54.1875 55.7374C57.8309 55.7374 60.7951 58.7016 60.7951 62.3449V75.7369H44.3076V62.3449C44.3076 59.7517 43.2248 57.4083 41.4899 55.7374H54.1875ZM57.2034 52.1977C57.2034 47.7808 60.7969 44.1876 65.2135 44.1876C69.6301 44.1876 73.2236 47.7811 73.2236 52.1977C73.2236 56.6143 69.6301 60.2077 65.2135 60.2077C64.4696 60.2077 63.739 60.1011 63.0328 59.9016C62.2431 57.0466 60.1074 54.7451 57.353 53.73C57.2559 53.2272 57.2034 52.7146 57.2034 52.1977ZM25.6903 23.6305C25.6903 23.3375 25.9286 23.0994 26.2214 23.0994H35.3436C35.6366 23.0994 35.8747 23.3377 35.8747 23.6305V27.2474H25.6903V23.6305ZM23.9719 36.1623C25.4955 34.5889 26.9119 32.7287 27.1065 29.818H34.5783C34.7729 32.7287 36.1893 34.5889 37.7129 36.1623C39.2831 37.7841 40.1481 39.9206 40.1481 42.1779V53.1668H35.1297H21.5365V42.1779C21.5365 39.9203 22.4015 37.7839 23.9719 36.1623ZM7.42166 62.3449C7.42166 58.7016 10.3859 55.7374 14.0292 55.7374H19.7023H35.1294C38.7728 55.7374 41.737 58.7016 41.737 62.3449V75.7369H7.42166V62.3449ZM64.8842 81.3501H2.57063V80.4987C2.57063 79.2905 3.55338 78.3078 4.76132 78.3078H62.6932C63.9012 78.3078 64.8839 79.2905 64.8839 80.4987V81.3501H64.8842ZM63.3657 75.7901V72.4946H79.8566V81.3761H67.4548V80.4985C67.4548 78.1019 65.6731 76.1184 63.3657 75.7901ZM82.4272 81.3761V72.4946H97.3903V81.3761H82.4272Z" />
</svg>
