<svg viewBox="0 0 100 84" xmlns="http://www.w3.org/2000/svg"><path d="m100 33.2c0-.1 0-.2 0-.3v-11.1-.2s0-.1 0-.2 0 0 0-.1l-8.6-14.9v-2.7c0-1.9-1.6-3.5-3.5-3.5h-27.4c-1.9 0-3.5 1.6-3.5 3.5v2.7l-8.6 14.9s0 0 0 .1v.2.2 31.4h-5.3v-11c0-2.9-1.1-5.7-3.2-7.8-1.6-1.6-2.3-2.9-2.4-4.6.7 0 1.3-.6 1.3-1.3v-4.9c0-1.7-1.4-3.1-3.1-3.1h-9.1c-1.7 0-3.1 1.4-3.1 3.1v4.9c0 .7.6 1.3 1.3 1.3h.1c-.1 1.6-.8 2.9-2.4 4.6-2 2.1-3.2 4.9-3.2 7.8v11h-4.9c-5.1 0-9.2 4.1-9.2 9.2v13.4c-2.6 0-4.8 2.1-4.8 4.8v2.1c0 .7.6 1.3 1.3 1.3h64.9s32.5 0 32.5 0c.7 0 1.3-.6 1.3-1.3v-11.2s0-.2 0-.3v-38zm-49.4-10.1h29.3v8.8h-29.3zm39.3-13.9 6.5 11.3h-13.1l6.5-11.3zm-7.5 25.3h15v35.5h-15zm0-2.6v-8.8h15v8.8zm-23.1-28.3c0-.5.4-1 1-1h27.4c.5 0 1 .4 1 1v1.8h-29.3v-1.8zm-.5 4.4h28.9l-7.3 12.6h-28.9zm-8.2 26.5h29.3v35.5h-16.5v-7.3c.6.1 1.2.2 1.8.2 5.8 0 10.6-4.7 10.6-10.6s-4.7-10.6-10.6-10.6-10.6 4.7-10.6 10.6 0 .7 0 1c-.2 0-.3 0-.5 0h-3.6v-18.7zm3.6 21.3c3.6 0 6.6 3 6.6 6.6v13.4h-16.5v-13.4c0-2.6-1.1-4.9-2.8-6.6zm3-3.5c0-4.4 3.6-8 8-8s8 3.6 8 8-3.6 8-8 8-1.5-.1-2.2-.3c-.8-2.9-2.9-5.2-5.7-6.2 0-.5-.1-1-.1-1.5zm-31.5-28.6c0-.3.2-.5.5-.5h9.1c.3 0 .5.2.5.5v3.6h-10.2v-3.6zm-1.7 12.5c1.5-1.6 2.9-3.4 3.1-6.3h7.5c.2 2.9 1.6 4.8 3.1 6.3 1.6 1.6 2.4 3.8 2.4 6v11h-18.6v-11c0-2.3.9-4.4 2.4-6zm-16.6 26.1c0-3.6 3-6.6 6.6-6.6h21.1c3.6 0 6.6 3 6.6 6.6v13.4h-34.3zm57.5 19h-62.3v-.9c0-1.2 1-2.2 2.2-2.2h57.9c1.2 0 2.2 1 2.2 2.2zm-1.5-5.6v-3.3h16.5v8.9h-12.4v-.9c0-2.4-1.8-4.4-4.1-4.7zm19.1 5.6v-8.9h15v8.9z"/></svg>