<svg width="16" height="16" viewBox="0 0 16 16" fill="none" xmlns="http://www.w3.org/2000/svg">
<path fill-rule="evenodd" clip-rule="evenodd" d="M7.99961 14.4C11.5342 14.4 14.3996 11.5346 14.3996 7.99998C14.3996 4.46535 11.5342 1.59998 7.99961 1.59998C4.46499 1.59998 1.59961 4.46535 1.59961 7.99998C1.59961 11.5346 4.46499 14.4 7.99961 14.4ZM3.46504 6.4219C3.76395 5.56286 4.30007 4.81489 4.99497 4.25642C5.20928 4.5837 5.5792 4.7999 5.99962 4.7999C6.66236 4.7999 7.19962 5.33716 7.19962 5.9999V6.3999C7.19962 7.28356 7.91597 7.9999 8.79962 7.9999C9.68328 7.9999 10.3996 7.28356 10.3996 6.3999C10.3996 5.64781 10.9185 5.01692 11.6179 4.84573C12.3538 5.68926 12.7996 6.79253 12.7996 7.99991C12.7996 8.27253 12.7769 8.53984 12.7332 8.80005H11.9996C11.1159 8.80005 10.3996 9.51639 10.3996 10.4V12.1578C9.69358 12.5662 8.87382 12.7999 7.99954 12.7999V11.2C7.99954 10.3163 7.2832 9.59998 6.39954 9.59998C5.51589 9.59998 4.79954 8.88363 4.79954 7.99998C4.79954 7.20677 4.22234 6.54837 3.46504 6.4219Z" fill="#111827"/>
</svg>
