<svg width="100" height="100" viewBox="0 0 100 100" xmlns="http://www.w3.org/2000/svg">
    <path d="M87.5 50C87.5 43.1078 81.8922 37.5 75 37.5C68.1078 37.5 62.5 43.1078 62.5 50C62.5 55.8125 66.4938 60.6953 71.875 62.0875V78.125C71.875 86.7406 64.8656 93.75 56.25 93.75H53.125C44.5094 93.75 37.5 86.7406 37.5 78.125V71.875C37.5 70.15 36.1 68.75 34.375 68.75C32.65 68.75 31.25 70.15 31.25 71.875V78.125C31.25 90.1875 41.0625 100 53.125 100H56.25C68.3125 100 78.125 90.1875 78.125 78.125V62.0875C83.5062 60.6953 87.5 55.8125 87.5 50ZM75 56.25C71.5531 56.25 68.75 53.4469 68.75 50C68.75 46.5531 71.5531 43.75 75 43.75C78.4469 43.75 81.25 46.5531 81.25 50C81.25 53.4469 78.4469 56.25 75 56.25Z"/>
    <path d="M72.7813 47.7969C72.2031 48.375 71.875 49.1719 71.875 50C71.875 50.8281 72.2031 51.625 72.7813 52.2031C73.375 52.7969 74.1719 53.125 75 53.125C75.8125 53.125 76.625 52.7969 77.2031 52.2031C77.7969 51.625 78.125 50.8281 78.125 50C78.125 49.1719 77.7969 48.375 77.2031 47.7969C76.0312 46.625 73.9531 46.625 72.7813 47.7969Z" />
    <path d="M32.1719 60.2812C31.5781 60.875 31.25 61.6719 31.25 62.5C31.25 63.3281 31.5781 64.125 32.1719 64.7187C32.75 65.2969 33.5609 65.625 34.375 65.625C35.1875 65.625 36 65.2969 36.5938 64.7031C37.1719 64.125 37.5 63.3125 37.5 62.5C37.5 61.6859 37.1719 60.875 36.5781 60.2812C35.4219 59.125 33.3438 59.125 32.1719 60.2812Z" />
    <path d="M31.25 53.125C31.25 54.85 32.65 56.25 34.375 56.25C36.1 56.25 37.5 54.85 37.5 53.125V50C47.8391 50 56.25 41.5891 56.25 31.25V3.125C56.25 1.4 54.85 0 53.125 0H46.875C45.15 0 43.75 1.4 43.75 3.125C43.75 4.85 45.15 6.25 46.875 6.25H50V31.25C50 38.1422 44.3922 43.75 37.5 43.75H31.25C24.3578 43.75 18.75 38.1422 18.75 31.25V6.25H21.875C23.6 6.25 25 4.85 25 3.125C25 1.4 23.6 0 21.875 0H15.625C13.9 0 12.5 1.4 12.5 3.125V31.25C12.5 41.5891 20.9109 50 31.25 50V53.125Z" />
</svg>
