<svg viewBox="0 0 100 100" xmlns="http://www.w3.org/2000/svg"><path d="m87.5 50c0-6.9-5.6-12.5-12.5-12.5s-12.5 5.6-12.5 12.5 4 10.7 9.4 12.1v16c0 8.6-7 15.6-15.6 15.6h-3.1c-8.6 0-15.6-7-15.6-15.6v-6.2c0-1.7-1.4-3.1-3.1-3.1s-3.1 1.4-3.1 3.1v6.2c0 12.1 9.8 21.9 21.9 21.9h3.1c12.1 0 21.9-9.8 21.9-21.9v-16c5.4-1.4 9.4-6.3 9.4-12.1zm-12.5 6.2c-3.4 0-6.2-2.8-6.2-6.2s2.8-6.2 6.2-6.2 6.2 2.8 6.2 6.2-2.8 6.2-6.2 6.2zm-2.2-8.5c-.6.6-.9 1.4-.9 2.2s.3 1.6.9 2.2 1.4.9 2.2.9 1.6-.3 2.2-.9.9-1.4.9-2.2-.3-1.6-.9-2.2c-1.2-1.2-3.2-1.2-4.4 0zm-40.6 12.5c-.6.6-.9 1.4-.9 2.2s.3 1.6.9 2.2 1.4.9 2.2.9 1.6-.3 2.2-.9.9-1.4.9-2.2-.3-1.6-.9-2.2c-1.2-1.2-3.2-1.2-4.4 0zm-.9-7.2c0 1.7 1.4 3.1 3.1 3.1s3.1-1.4 3.1-3.1v-3.1c10.3 0 18.8-8.4 18.8-18.8v-28c0-1.7-1.4-3.1-3.1-3.1h-6.2c-1.7 0-3.1 1.4-3.1 3.1s1.4 3.1 3.1 3.1h3.1v25c0 6.9-5.6 12.5-12.5 12.5h-6.2c-6.9 0-12.5-5.6-12.5-12.5v-25h3.1c1.7 0 3.1-1.4 3.1-3.1s-1.4-3.1-3.1-3.1h-6.2c-1.7 0-3.1 1.4-3.1 3.1v28.1c0 10.3 8.4 18.8 18.8 18.8v3.1z"/></svg>