<svg width="16" height="16" viewBox="0 0 16 16" fill="none" xmlns="http://www.w3.org/2000/svg">
<path d="M8.5653 1.83429C8.25288 1.52187 7.74634 1.52187 7.43392 1.83429L1.83392 7.43429C1.5215 7.74671 1.5215 8.25324 1.83392 8.56566C2.14634 8.87808 2.65288 8.87808 2.96529 8.56566L3.19961 8.33135V13.6C3.19961 14.0418 3.55778 14.4 3.99961 14.4H5.59961C6.04144 14.4 6.39961 14.0418 6.39961 13.6V12C6.39961 11.5581 6.75778 11.2 7.19961 11.2H8.79961C9.24144 11.2 9.59961 11.5581 9.59961 12V13.6C9.59961 14.0418 9.95778 14.4 10.3996 14.4H11.9996C12.4414 14.4 12.7996 14.0418 12.7996 13.6V8.33135L13.0339 8.56566C13.3463 8.87808 13.8529 8.87808 14.1653 8.56566C14.4777 8.25324 14.4777 7.74671 14.1653 7.43429L8.5653 1.83429Z" fill="#111827"/>
</svg>
