<svg viewBox="0 0 92 78" xmlns="http://www.w3.org/2000/svg"><path d="m90.2 9.2c-.6-.6-1.3-1-2.1-1.3-.8-.2-1.6-.3-2.4 0-.8.2-1.5.6-2.1 1.2s-1 1.3-1.2 2.1l-6.5 23.6c-1.2 0-2.3 0-3.4.4s-2.1 1-3 1.8l-10.4 9.7c-2.1 1.9-3.8 4.3-4.9 6.9s-1.7 5.4-1.7 8.3v14.5c0 .3.1.5.3.7s.4.3.7.3.5-.1.7-.3.3-.4.3-.7v-14.5c0-2.6.5-5.1 1.6-7.5 1-2.4 2.5-4.5 4.4-6.3l10.4-9.7c1-.9 2.3-1.5 3.7-1.7 1.4-.1 2.8.2 4 .9.2.1.4.3.5.5s.2.4.3.6v.7c0 .2-.1.4-.3.6l-11 15c0 .1-.2.2-.2.4v.4c0 .1 0 .3.1.4 0 .1.2.2.3.3.1 0 .2.1.4.2h.4s.3 0 .4-.2c.1 0 .2-.2.3-.3l11-15c.3-.4.5-.9.6-1.4s.1-1 0-1.5c0-.5-.3-1-.6-1.4s-.7-.8-1.1-1c-.5-.3-1.1-.6-1.7-.8l6.4-23.5c.2-.6.5-1.1 1-1.4.5-.4 1-.5 1.6-.5.4 0 .7 0 1.1.2.3.1.6.4.9.6.2.3.4.6.6.9.1.3.2.7.1 1.1l-1.9 28.4c-.2 3.2-1.4 6.2-3.4 8.6l-14.3 17.5c-.1.2-.2.4-.2.6v8.6c0 .3.1.5.3.7s.4.3.7.3.5-.1.7-.3.3-.4.3-.7v-8.2l14.1-17.2c2.3-2.8 3.6-6.2 3.9-9.8l1.9-28.4c0-.6 0-1.3-.3-1.9-.2-.6-.5-1.1-1-1.6zm-57.1 37.4-10.4-9.7c-.9-.8-1.9-1.4-3-1.8s-2.3-.5-3.4-.4l-6.5-23.6c-.3-1.1-1-2.1-2-2.7s-2.1-.9-3.3-.7c-1.1.2-2.2.8-2.9 1.7s-1.1 2.1-1 3.2l1.9 28.4c.2 3.6 1.6 7 3.9 9.8l14.1 17.2v8.2c0 .3.1.5.3.7s.4.3.7.3.5-.1.7-.3.3-.4.3-.7v-8.6c0-.2 0-.5-.2-.6l-14.3-17.5c-2-2.5-3.2-5.5-3.4-8.6l-1.9-28.4c0-.7.2-1.3.6-1.8s1-.9 1.6-1c.7-.1 1.3 0 1.9.4s1 .9 1.1 1.5l6.4 23.5c-.6.2-1.2.5-1.7.8-.4.3-.8.6-1.1 1s-.5.9-.6 1.4v1.5c.1.5.3 1 .6 1.4l11 15c.2.2.4.3.6.3.3 0 .5 0 .7-.2.2-.1.3-.4.4-.6 0-.2 0-.5-.1-.7l-11-15c-.1-.2-.2-.4-.3-.6 0-.2 0-.5 0-.7s.1-.4.3-.6c.1-.2.3-.3.5-.5 1.2-.7 2.6-1 4-.9s2.7.7 3.7 1.7l10.4 9.7c1.9 1.8 3.4 3.9 4.4 6.3s1.6 4.9 1.6 7.5v14.5c0 .3.1.5.3.7s.4.3.7.3.5-.1.7-.3.3-.4.3-.7v-14.5c0-2.9-.6-5.7-1.7-8.3s-2.8-5-4.9-6.9zm30-8.3v-20h5.8c.2 0 .4 0 .6-.2.2-.1.3-.3.4-.5 0-.2 0-.4 0-.6s-.2-.4-.4-.5l-7.3-5v-8.3c0-.1 0-.3 0-.4s-.1-.2-.2-.3c0 0-.2-.2-.3-.2s-.3 0-.4 0h-6.9c-.3 0-.5.1-.7.3s-.3.4-.3.7v2.2l-6.6-4.6c-.2-.1-.4-.2-.6-.2s-.4 0-.6.2l-22.8 15.7c-.2.1-.3.3-.4.5v.6c0 .2.2.4.4.5s.4.2.6.2h5.8v20 .4c0 .1.1.2.2.3 0 0 .2.2.3.2h.4 32c.3 0 .5-.1.7-.3s.3-.4.3-.7zm-11.9-1h-10.2v-10.8c0-1.3.5-2.6 1.5-3.6.9-.9 2.2-1.5 3.6-1.5h.1c1.3 0 2.6.5 3.6 1.5.9.9 1.5 2.2 1.5 3.6v10.8zm9.9-20v20h-7.9v-10.8c0-1.9-.7-3.7-2.1-5s-3.1-2.1-5-2.1h-.1c-1.9 0-3.7.7-5 2.1-1.3 1.3-2.1 3.1-2.1 5v10.8h-7.9v-20c0-.3-.1-.5-.3-.7s-.4-.3-.7-.3h-3.6l19.6-13.5 7.6 5.2c.1.1.3.2.5.2s.4 0 .5-.1c.2 0 .3-.2.4-.4 0-.2.1-.3.1-.5v-3.1h4.9v7.9c0 .2 0 .3.1.5 0 .1.2.3.3.4l5.1 3.5h-3.6c-.1 0-.3 0-.4 0s-.2.1-.3.2c0 0-.2.2-.2.3v.4z"/></svg>