<svg width="92" height="78" viewBox="0 0 92 78" fill="none" xmlns="http://www.w3.org/2000/svg">
    <path d="M90.1602 9.211C89.5936 8.60553 88.8758 8.16213 88.0807 7.92652C87.2857 7.69091 86.4422 7.67162 85.6372 7.87063C84.8322 8.06964 84.0948 8.47975 83.5012 9.05867C82.9075 9.6376 82.479 10.3644 82.2598 11.1641L75.7754 34.7969C74.6195 34.7047 73.457 34.8528 72.3612 35.232C71.2654 35.6112 70.2599 36.2132 69.4082 37.0001L58.9883 46.6583C56.8953 48.606 55.2257 50.9638 54.0832 53.5847C52.9408 56.2056 52.35 59.0336 52.3477 61.8926V76.3633C52.3477 76.6275 52.4526 76.8809 52.6394 77.0677C52.8262 77.2545 53.0796 77.3594 53.3438 77.3594C53.6079 77.3594 53.8613 77.2545 54.0481 77.0677C54.2349 76.8809 54.3398 76.6275 54.3398 76.3633V61.8848C54.3435 59.3008 54.8785 56.7452 55.9117 54.3768C56.9449 52.0083 58.4542 49.8777 60.3457 48.1172L70.7676 38.4512C71.7898 37.509 73.0905 36.9244 74.4738 36.7852C75.857 36.6461 77.2481 36.96 78.4375 37.6798C78.6343 37.8002 78.8039 37.9601 78.9357 38.1495C79.0674 38.3389 79.1584 38.5536 79.2029 38.78C79.2473 39.0064 79.2442 39.2396 79.1938 39.4647C79.1434 39.6899 79.0468 39.9021 78.9102 40.088L67.8672 55.084C67.7795 55.1886 67.7142 55.3101 67.6754 55.4409C67.6366 55.5717 67.6251 55.7091 67.6416 55.8446C67.6581 55.98 67.7022 56.1106 67.7713 56.2283C67.8404 56.346 67.9329 56.4483 68.0431 56.5287C68.1533 56.6092 68.2789 56.6661 68.412 56.696C68.5452 56.7259 68.6831 56.7282 68.8171 56.7026C68.9511 56.677 69.0785 56.6242 69.1913 56.5473C69.304 56.4705 69.3998 56.3713 69.4727 56.2559L80.5156 41.2598C80.8161 40.8516 81.0284 40.3853 81.1391 39.8907C81.2498 39.396 81.2564 38.8837 81.1585 38.3863C81.0606 37.889 80.8603 37.4174 80.5705 37.0015C80.2806 36.5857 79.9074 36.2347 79.4746 35.9708C78.9282 35.6392 78.3456 35.3711 77.7383 35.1719L84.1836 11.6778C84.3408 11.1163 84.6771 10.6216 85.1415 10.269C85.6059 9.91638 86.1728 9.72524 86.7559 9.72467C87.1214 9.72465 87.483 9.79972 87.8183 9.94525C88.1536 10.0908 88.4554 10.3037 88.705 10.5707C88.9546 10.8377 89.1467 11.1531 89.2694 11.4975C89.392 11.8418 89.4426 12.2076 89.418 12.5723L87.4902 41.0001C87.281 44.1634 86.0872 47.1821 84.0762 49.6329L69.75 67.1251C69.6041 67.3029 69.5247 67.5259 69.5254 67.7559V76.3497C69.5254 76.6139 69.6303 76.8672 69.8171 77.054C70.0039 77.2408 70.2573 77.3458 70.5215 77.3458C70.7857 77.3458 71.039 77.2408 71.2258 77.054C71.4126 76.8672 71.5176 76.6139 71.5176 76.3497V68.1192L85.6152 50.8946C87.8906 48.1225 89.2409 44.7076 89.4766 41.129L91.4043 12.6993C91.4447 12.0638 91.3552 11.4268 91.1413 10.8271C90.9274 10.2273 90.5936 9.67746 90.1602 9.211Z" />
    <path d="M33.0115 46.6582L22.5916 36.9921C21.7399 36.2052 20.7345 35.6033 19.6386 35.2241C18.5428 34.8449 17.3803 34.6968 16.2244 34.789L9.74006 11.1562C9.43534 10.0408 8.72684 9.07849 7.75222 8.4563C6.77759 7.83411 5.60647 7.59648 4.46642 7.78957C3.32637 7.98267 2.29881 8.59269 1.58344 9.50112C0.868057 10.4095 0.515948 11.5515 0.59553 12.705L2.52326 41.1367C2.7589 44.7153 4.10918 48.1302 6.38459 50.9023L20.4822 68.1269V76.3632C20.4822 76.6274 20.5872 76.8808 20.774 77.0676C20.9608 77.2544 21.2142 77.3593 21.4783 77.3593C21.7425 77.3593 21.9959 77.2544 22.1827 77.0676C22.3695 76.8808 22.4744 76.6274 22.4744 76.3632V67.7695C22.4783 67.5348 22.3987 67.3064 22.2498 67.1249L7.92561 49.6249C5.91457 47.1741 4.72078 44.1555 4.51155 40.9921L2.58381 12.5722C2.53942 11.9125 2.74157 11.2598 3.15107 10.7407C3.56057 10.2216 4.14824 9.87303 4.80015 9.76259C5.45205 9.65216 6.12174 9.78773 6.67937 10.143C7.23699 10.4983 7.64283 11.048 7.81819 11.6855L14.2635 35.1796C13.6562 35.3788 13.0736 35.6469 12.5272 35.9785C12.0944 36.2424 11.7212 36.5934 11.4313 37.0092C11.1414 37.4251 10.9412 37.8967 10.8433 38.394C10.7454 38.8914 10.752 39.4037 10.8627 39.8983C10.9733 40.393 11.1857 40.8593 11.4862 41.2675L22.5291 56.2636C22.6914 56.4571 22.9212 56.5818 23.1719 56.6123C23.4226 56.6428 23.6756 56.577 23.8796 56.4281C24.0836 56.2792 24.2234 56.0583 24.2708 55.8102C24.3181 55.5621 24.2694 55.3053 24.1346 55.0918L13.0936 40.0878C12.9569 39.902 12.8603 39.6898 12.8099 39.4646C12.7595 39.2395 12.7564 39.0063 12.8009 38.7799C12.8453 38.5535 12.9363 38.3388 13.068 38.1494C13.1998 37.96 13.3694 37.8 13.5662 37.6796C14.7557 36.9599 16.1467 36.646 17.53 36.7851C18.9132 36.9242 20.2139 37.5089 21.2362 38.4511L31.658 48.1171C33.5496 49.8776 35.0588 52.0082 36.092 54.3766C37.1252 56.7451 37.6603 59.3007 37.6639 61.8847V76.3632C37.6639 76.6274 37.7688 76.8808 37.9556 77.0676C38.1424 77.2544 38.3958 77.3593 38.66 77.3593C38.9242 77.3593 39.1775 77.2544 39.3643 77.0676C39.5511 76.8808 39.6561 76.6274 39.6561 76.3632V61.8847C39.6522 59.0267 39.0603 56.2 37.9172 53.5805C36.7741 50.961 35.1043 48.6047 33.0115 46.6582Z" />
    <path d="M62.9921 38.3397V18.3417H68.7499C68.962 18.3414 69.1684 18.2734 69.3392 18.1476C69.5099 18.0218 69.6361 17.8449 69.6993 17.6424C69.7625 17.44 69.7594 17.2226 69.6905 17.0221C69.6217 16.8215 69.4906 16.6481 69.3163 16.5272L62.0468 11.5077V3.15028C62.0468 3.01947 62.021 2.88994 61.971 2.76909C61.9209 2.64824 61.8475 2.53843 61.7551 2.44593C61.6626 2.35344 61.5527 2.28007 61.4319 2.23001C61.311 2.17995 61.1815 2.15418 61.0507 2.15418H54.164C53.8998 2.15418 53.6464 2.25913 53.4596 2.44593C53.2728 2.63274 53.1679 2.8861 53.1679 3.15028V5.37489L46.5663 0.818247C46.4 0.702912 46.2024 0.641113 45.9999 0.641113C45.7975 0.641113 45.5999 0.702912 45.4335 0.818247L22.6796 16.5272C22.5042 16.6473 22.3719 16.8204 22.3022 17.0212C22.2324 17.222 22.2288 17.4399 22.2919 17.6429C22.3551 17.8458 22.4816 18.0232 22.653 18.149C22.8243 18.2748 23.0315 18.3423 23.2441 18.3417H29.0077V38.3397C29.0077 38.4705 29.0335 38.6001 29.0836 38.7209C29.1336 38.8418 29.207 38.9516 29.2995 39.0441C29.392 39.1366 29.5018 39.2099 29.6226 39.26C29.7435 39.3101 29.873 39.3358 30.0038 39.3358H62.0019C62.265 39.3343 62.5169 39.2286 62.7024 39.042C62.888 38.8554 62.9921 38.6029 62.9921 38.3397ZM51.1132 37.3436H40.8808V26.5741C40.8818 25.2328 41.4151 23.9467 42.3636 22.9983C43.312 22.0498 44.5981 21.5165 45.9394 21.5155H46.0605C47.4018 21.5165 48.6878 22.0498 49.6363 22.9983C50.5847 23.9467 51.118 25.2328 51.1191 26.5741L51.1132 37.3436ZM60.9999 17.3456V37.3436H53.1113V26.5741C53.1092 24.7048 52.3657 22.9126 51.0438 21.5907C49.722 20.2689 47.9298 19.5254 46.0605 19.5233H45.9394C44.07 19.5254 42.2778 20.2689 40.956 21.5907C39.6342 22.9126 38.8907 24.7048 38.8886 26.5741V37.3436H30.9941V17.3456C30.9941 17.0814 30.8891 16.8281 30.7023 16.6412C30.5155 16.4544 30.2622 16.3495 29.998 16.3495H26.4413L45.9999 2.84754L53.5976 8.09168C53.747 8.19496 53.9218 8.25543 54.1031 8.26653C54.2844 8.27764 54.4652 8.23897 54.6261 8.1547C54.787 8.07043 54.9218 7.94377 55.0159 7.78842C55.1101 7.63308 55.1599 7.45495 55.1601 7.27333V4.14833H60.0624V12.0331C60.0624 12.1941 60.1015 12.3527 60.1764 12.4952C60.2512 12.6378 60.3596 12.76 60.4921 12.8515L65.5585 16.3436H62.0019C61.8706 16.3436 61.7406 16.3696 61.6193 16.42C61.4981 16.4704 61.388 16.5443 61.2955 16.6375C61.2029 16.7306 61.1296 16.8411 61.0799 16.9626C61.0302 17.0841 61.005 17.2143 61.0058 17.3456H60.9999Z" />
</svg>
