<svg width="94" height="90" viewBox="0 0 94 90" xmlns="http://www.w3.org/2000/svg">
    <path d="M49.0371 10.3926H47.1816V12.248H49.0371V10.3926Z" />
    <path d="M81.4917 24.6108H79.6362V26.4663H81.4917V24.6108Z" />
    <path d="M85.9116 50.187H84.0562V52.0425H85.9116V50.187Z" />
    <path d="M76.4209 61.3479H74.5654V63.2034H76.4209V61.3479Z" />
    <path d="M37.5107 33.064H35.6553V34.9194H37.5107V33.064Z" />
    <path d="M44.6412 20.7255L44.9822 18.8023C42.7238 18.4021 40.5621 19.9132 40.1619 22.1708C39.7617 24.4285 41.2728 26.5906 43.5305 26.991C43.7697 27.0333 44.01 27.054 44.2484 27.054C45.5809 27.054 46.8633 26.4091 47.649 25.3021L46.0562 24.1716C45.5644 24.8642 44.7064 25.216 43.8713 25.0679C42.674 24.8556 41.8728 23.7089 42.085 22.5119C42.2971 21.3148 43.4426 20.513 44.6412 20.7255Z" />
    <path d="M73.3346 22.2823C72.815 22.5591 72.218 22.6169 71.6549 22.4454L71.0854 24.3136C71.4859 24.4356 71.8955 24.4964 72.3029 24.4964C72.9754 24.4964 73.6422 24.3313 74.2529 24.0061C75.233 23.4839 75.9512 22.6112 76.2752 21.5489C76.599 20.4866 76.49 19.3614 75.9678 18.3811C75.4455 17.4009 74.5727 16.6827 73.5104 16.3589C71.9799 15.8923 70.2949 16.3561 69.2188 17.5407L70.6641 18.8544C71.2352 18.2259 72.1289 17.9798 72.9406 18.2272C73.5041 18.3989 73.9668 18.78 74.2438 19.2997C74.5207 19.8196 74.5787 20.4161 74.4066 20.9796C74.2352 21.5425 73.8545 22.0054 73.3346 22.2823Z" />
    <path d="M84.5826 43.1419C84.3568 42.4599 83.9742 41.8341 83.4504 41.3105C82.7328 40.5929 81.8371 40.1624 80.9045 40.0105L81.5945 39.3203C82.4791 38.4359 82.9652 37.2613 82.9629 36.0146C82.9629 34.9257 82.5936 33.8945 81.915 33.0634C83.4451 31.7085 84.599 29.9937 85.2818 28.0404C86.3441 25.0001 86.16 21.7279 84.7631 18.8267C83.3658 15.9248 80.9217 13.7414 77.8824 12.6792C75.5535 11.8648 73.0672 11.8076 70.7584 12.4296C70.8748 11.1097 70.5939 9.7605 69.9307 8.60073C69.6186 8.05269 69.2262 7.55093 68.7619 7.10737C66.1531 4.6269 62.0113 4.73042 59.5289 7.33921C58.967 7.93061 58.5279 8.61245 58.2238 9.34956C55.7688 6.56675 52.1871 4.798 48.1932 4.77339C48.1646 4.77319 48.1367 4.77319 48.108 4.77319C40.7092 4.77319 34.666 10.7701 34.6201 18.1794C34.6119 19.4941 34.7992 20.7839 35.1586 22.014C33.1877 22.7146 31.4805 23.9089 30.1734 25.4791C27.4318 26.3796 24.9416 27.9687 22.9572 30.0919C19.549 33.7373 14.8379 35.8279 10.0316 35.8279H0.799805V37.781H10.0318C15.3768 37.781 20.608 35.4648 24.3842 31.4257C25.5551 30.173 26.924 29.1308 28.4242 28.3373C27.2959 30.9666 27.184 33.8806 28.1186 36.6064C28.9906 39.1531 30.7357 41.324 33.0324 42.7197L34.0467 41.0505C32.1396 39.8918 30.6906 38.0888 29.966 35.9732C28.2633 31.0074 30.8969 25.5859 35.8402 23.8437C37.1316 26.6724 39.3818 29.0382 42.273 30.4275L43.1189 28.6669C39.115 26.7429 36.5457 22.631 36.5732 18.1912C36.6125 11.8542 41.7801 6.72593 48.1084 6.72593C48.1324 6.72593 48.1568 6.72593 48.1809 6.72612C54.5418 6.76538 59.6848 11.9724 59.6455 18.3335L61.5986 18.3457C61.6143 15.8042 60.9219 13.4207 59.7072 11.3816C59.808 10.3724 60.2387 9.42729 60.944 8.68491C62.6842 6.8564 65.5867 6.78374 67.4145 8.52085C67.7395 8.83159 68.0152 9.18355 68.2342 9.56851C68.8658 10.6724 69.0025 12.0193 68.6199 13.2289C67.4064 13.8166 66.2822 14.6087 65.308 15.5953L66.6977 16.9675C69.432 14.199 73.5687 13.2388 77.2377 14.5226C79.7848 15.4126 81.832 17.2419 83.0033 19.6738C84.174 22.1052 84.3285 24.8476 83.4383 27.3957C82.8287 29.1394 81.7713 30.6568 80.3617 31.8232C79.7262 31.5085 79.0221 31.341 78.2914 31.341C78.291 31.341 78.2906 31.341 78.2902 31.341C78.09 31.341 77.8916 31.355 77.6959 31.3796C77.7203 31.1841 77.7344 30.9859 77.7344 30.7855C77.7344 29.5363 77.2488 28.3628 76.3676 27.4814C75.4848 26.5986 74.3107 26.1125 73.0617 26.1125C72.0447 26.1125 71.0773 26.4351 70.2762 27.0318C70.1297 26.0515 69.675 25.1468 68.9602 24.4316C67.1375 22.6089 64.1715 22.6089 62.3488 24.4316L52.6996 34.0808C52.3842 33.2783 51.9055 32.5412 51.2771 31.913C50.175 30.8109 48.3818 30.8109 47.2797 31.913L42.5184 36.6744L36.2889 42.9039C33.2033 45.9892 31.5184 50.2613 31.6662 54.6246C31.7447 56.9419 31.3389 59.216 30.5125 61.2988H28.0822C26.3793 61.2988 24.7602 60.7605 23.4002 59.7423C20.923 57.8861 18.0576 56.905 15.1137 56.905H0.800586V58.8582H15.1137C17.632 58.8582 20.0924 59.7042 22.2293 61.3056C23.9301 62.579 25.9539 63.2519 28.0822 63.2519H29.5818C28.8943 64.4726 28.0496 65.5996 27.0568 66.5921L21.1045 72.5443L22.4855 73.9255L28.4379 67.973C31.9014 64.5097 33.7895 59.6199 33.6182 54.5582C33.4887 50.7339 34.9654 46.9894 37.6701 44.2849L40.3484 41.6066L48.6607 33.2941C48.826 33.1291 49.0453 33.0382 49.2787 33.0382C49.5117 33.0382 49.7314 33.1291 49.8963 33.2941C50.7279 34.1257 51.1861 35.2314 51.1861 36.4074C51.1861 37.5835 50.7279 38.6892 49.8963 39.5209L43.7172 45.7L45.0982 47.0808L51.2771 40.9023C52.4779 39.7019 53.1391 38.1056 53.1391 36.4078C53.1391 36.4064 53.1387 36.405 53.1387 36.4037L63.7299 25.8128C64.7912 24.7515 66.518 24.7515 67.5789 25.8128C68.0939 26.3275 68.3766 27.0105 68.3754 27.7374C68.3754 28.463 68.092 29.1459 67.5773 29.6605L57.0346 40.2035L58.4154 41.5845L71.1371 28.8628C72.1984 27.8015 73.9252 27.8015 74.9865 28.8628C75.4988 29.3753 75.7811 30.0582 75.7811 30.7859C75.7811 31.5136 75.498 32.197 74.9846 32.7105L62.2629 45.432L63.6438 46.8132L76.3658 34.0914C76.3662 34.0912 76.3662 34.0908 76.3666 34.0906C76.8805 33.5771 77.5637 33.2941 78.2904 33.2939C78.2908 33.2939 78.2908 33.2939 78.2912 33.2939C79.018 33.2939 79.7004 33.5765 80.2135 34.0896C80.727 34.6029 81.0096 35.2865 81.0096 36.016C81.0111 36.7412 80.7281 37.424 80.2135 37.9388L76.8404 41.3119L67.4918 50.6607L68.8727 52.0416L78.2213 42.6929C79.283 41.6314 81.0086 41.6308 82.0691 42.6912C82.5838 43.2058 82.8664 43.8888 82.8652 44.6158C82.8652 45.3437 82.5826 46.0269 82.0691 46.5404L69.8457 58.7642L71.2266 60.1451L83.4504 47.9216C84.2045 47.1671 84.6676 46.1998 84.7867 45.1552C87.2898 45.6927 89.1725 47.9216 89.1725 50.5832C89.1725 53.6449 86.6814 56.1355 83.6201 56.1355H82.6436V86.2269C82.6436 87.1398 81.9008 87.8826 80.9879 87.8826C80.075 87.8826 79.3326 87.1398 79.3326 86.2269V69.9248C79.3326 68.2601 77.9783 66.9054 76.3137 66.9054C74.649 66.9054 73.2947 68.2601 73.2947 69.9248V78.2468C73.2947 78.8347 72.8164 79.3126 72.2285 79.3126H71.8543C71.2664 79.3126 70.7885 78.8347 70.7885 78.2468V65.2261H68.8354V78.2468C68.8354 79.9115 70.1897 81.2658 71.8543 81.2658H72.2285C73.8932 81.2658 75.2479 79.9115 75.2479 78.2468V69.9248C75.2479 69.3369 75.7258 68.8585 76.3137 68.8585C76.9012 68.8585 77.3795 69.3369 77.3795 69.9248V86.2269C77.3795 88.2168 78.998 89.8357 80.9879 89.8357C82.9777 89.8357 84.5967 88.2168 84.5967 86.2269V58.0259C88.2756 57.5457 91.1256 54.3914 91.1256 50.5835C91.126 46.771 88.268 43.616 84.5826 43.1419Z" />
    <path d="M68.3054 60.3052L56.1755 72.4351C55.0905 73.52 53.7161 74.2081 52.2017 74.4259C49.3892 74.8288 46.8923 76.052 44.981 77.9636L35.7524 87.1921L37.1335 88.5729L46.362 79.3444C47.9726 77.7339 50.0878 76.7017 52.4792 76.3591C54.4151 76.081 56.171 75.2013 57.5565 73.8159L69.6864 61.686L68.3054 60.3052Z" />
    <path d="M30.3468 7.58516C32.3929 7.58516 34.0573 5.9207 34.0573 3.87461C34.0573 1.82852 32.3929 0.164062 30.3468 0.164062C28.3007 0.164062 26.6362 1.82852 26.6362 3.87461C26.6362 5.9207 28.3009 7.58516 30.3468 7.58516ZM30.3468 2.11719C31.3157 2.11719 32.1042 2.90566 32.1042 3.87461C32.1042 4.84355 31.3157 5.63203 30.3468 5.63203C29.3778 5.63203 28.5894 4.84355 28.5894 3.87461C28.5894 2.90566 29.3778 2.11719 30.3468 2.11719Z" />
    <path d="M75.8746 9.3311C77.3771 9.3311 78.5994 8.10864 78.5994 6.6061C78.5994 5.10356 77.3771 3.8811 75.8746 3.8811C74.3721 3.8811 73.1494 5.10356 73.1494 6.6061C73.1494 8.10884 74.3719 9.3311 75.8746 9.3311ZM75.8746 5.83442C76.3004 5.83442 76.6463 6.18071 76.6463 6.6063C76.6463 7.03188 76.3004 7.37817 75.8746 7.37817C75.4488 7.37817 75.1025 7.03188 75.1025 6.6063C75.1025 6.18071 75.4488 5.83442 75.8746 5.83442Z" />
    <path d="M28.4693 22.3797C30.043 22.3797 31.3232 21.0994 31.3232 19.5258C31.3232 17.9521 30.043 16.6719 28.4693 16.6719C26.8955 16.6719 25.6152 17.9521 25.6152 19.5258C25.6152 21.0994 26.8955 22.3797 28.4693 22.3797ZM28.4693 18.6248C28.966 18.6248 29.3701 19.0289 29.3701 19.5256C29.3701 20.0223 28.966 20.4264 28.4693 20.4264C27.9727 20.4264 27.5684 20.0223 27.5684 19.5256C27.5684 19.0289 27.9727 18.6248 28.4693 18.6248Z" />
    <path d="M89.4894 30.281C87.4431 30.281 85.7788 31.9455 85.7788 33.9915C85.7788 36.0376 87.4431 37.7021 89.4894 37.7021C91.5353 37.7021 93.1999 36.0376 93.1999 33.9915C93.1999 31.9455 91.5351 30.281 89.4894 30.281ZM89.4894 35.749C88.52 35.749 87.7319 34.9605 87.7319 33.9915C87.7319 33.0226 88.52 32.2341 89.4894 32.2341C90.4583 32.2341 91.2468 33.0226 91.2468 33.9915C91.2468 34.9605 90.4583 35.749 89.4894 35.749Z" />
</svg>
