<svg viewBox="0 0 94 90" xmlns="http://www.w3.org/2000/svg"><path d="m49 10.4h-1.9v1.9h1.9zm32.5 14.2h-1.9v1.9h1.9zm4.4 25.6h-1.9v1.9h1.9zm-9.5 11.2h-1.9v1.9h1.9zm-38.9-28.3h-1.9v1.9h1.9zm7.1-12.3.3-1.9c-2.3-.4-4.4 1.1-4.8 3.4s1.1 4.4 3.4 4.8h.7c1.3 0 2.6-.6 3.4-1.8l-1.6-1.1c-.5.7-1.3 1-2.2.9-1.2-.2-2-1.4-1.8-2.6s1.4-2 2.6-1.8zm28.7 1.6c-.5.3-1.1.3-1.7.2l-.6 1.9c.4.1.8.2 1.2.2.7 0 1.3-.2 1.9-.5 1-.5 1.7-1.4 2-2.5s.2-2.2-.3-3.2-1.4-1.7-2.5-2c-1.5-.5-3.2 0-4.3 1.2l1.4 1.3c.6-.6 1.5-.9 2.3-.6.6.2 1 .6 1.3 1.1s.3 1.1.2 1.7c-.2.6-.6 1-1.1 1.3zm11.2 20.9c-.2-.7-.6-1.3-1.1-1.8-.7-.7-1.6-1.1-2.5-1.3l.7-.7c.9-.9 1.4-2.1 1.4-3.3 0-1.1-.4-2.1-1-3 1.5-1.4 2.7-3.1 3.4-5 1.1-3 .9-6.3-.5-9.2s-3.8-5.1-6.9-6.1c-2.3-.8-4.8-.9-7.1-.2.1-1.3-.2-2.7-.8-3.8-.3-.5-.7-1-1.2-1.5-2.6-2.5-6.8-2.4-9.2.2-.6.6-1 1.3-1.3 2-2.5-2.8-6-4.6-10-4.6-7.4 0-13.4 6-13.5 13.4 0 1.3.2 2.6.5 3.8-2 .7-3.7 1.9-5 3.5-2.7.9-5.2 2.5-7.2 4.6-3.4 3.6-8.1 5.7-12.9 5.7h-9.5v2h9.2c5.3 0 10.6-2.3 14.4-6.4 1.2-1.3 2.5-2.3 4-3.1-1.1 2.6-1.2 5.5-.3 8.3.9 2.5 2.6 4.7 4.9 6.1l1-1.7c-1.9-1.2-3.4-3-4.1-5.1-1.7-5 .9-10.4 5.9-12.1 1.3 2.8 3.5 5.2 6.4 6.6l.8-1.8c-4-1.9-6.6-6-6.5-10.5 0-6.3 5.2-11.5 11.5-11.5s0 0 0 0c6.4 0 11.5 5.2 11.5 11.6h2c0-2.5-.7-4.9-1.9-7 .1-1 .5-2 1.2-2.7 1.7-1.8 4.6-1.9 6.5-.2.3.3.6.7.8 1 .6 1.1.8 2.5.4 3.7-1.2.6-2.3 1.4-3.3 2.4l1.4 1.4c2.7-2.8 6.9-3.7 10.5-2.4 2.5.9 4.6 2.7 5.8 5.2 1.2 2.4 1.3 5.2.4 7.7-.6 1.7-1.7 3.3-3.1 4.4-.6-.3-1.3-.5-2.1-.5-.2 0-.4 0-.6 0 0-.2 0-.4 0-.6 0-1.2-.5-2.4-1.4-3.3s-2.1-1.4-3.3-1.4-2 .3-2.8.9c-.1-1-.6-1.9-1.3-2.6-1.8-1.8-4.8-1.8-6.6 0l-9.6 9.6c-.3-.8-.8-1.5-1.4-2.2-1.1-1.1-2.9-1.1-4 0l-4.8 4.8-6.2 6.2c-3.1 3.1-4.8 7.4-4.6 11.7 0 2.3-.3 4.6-1.2 6.7h-2.4c-1.7 0-3.3-.5-4.7-1.6-2.5-1.9-5.3-2.8-8.3-2.8h-14.1v2h14.3c2.5 0 5 .8 7.1 2.4 1.7 1.3 3.7 1.9 5.9 1.9h1.5c-.7 1.2-1.5 2.3-2.5 3.3l-6 6 1.4 1.4 6-6c3.5-3.5 5.4-8.4 5.2-13.4-.1-3.8 1.3-7.6 4.1-10.3l2.7-2.7 8.3-8.3c.2-.2.4-.3.6-.3s.5 0 .6.3c.8.8 1.3 1.9 1.3 3.1s-.5 2.3-1.3 3.1l-6.2 6.2 1.4 1.4 6.2-6.2c1.2-1.2 1.9-2.8 1.9-4.5s0 0 0 0l10.6-10.6c1.1-1.1 2.8-1.1 3.8 0 .5.5.8 1.2.8 1.9s-.3 1.4-.8 1.9l-10.5 10.5 1.4 1.4 12.7-12.7c1.1-1.1 2.8-1.1 3.8 0 .5.5.8 1.2.8 1.9s-.3 1.4-.8 1.9l-12.7 12.7 1.4 1.4 12.7-12.7s0 0 0 0c.5-.5 1.2-.8 1.9-.8s1.4.3 1.9.8.8 1.2.8 1.9-.3 1.4-.8 1.9l-3.4 3.4-9.3 9.3 1.4 1.4 9.3-9.3c1.1-1.1 2.8-1.1 3.8 0 .5.5.8 1.2.8 1.9s-.3 1.4-.8 1.9l-12.2 12.2 1.4 1.4 12.2-12.2c.8-.8 1.2-1.7 1.3-2.8 2.5.5 4.4 2.8 4.4 5.4s-2.5 5.6-5.6 5.6h-1v30.1c0 .9-.7 1.7-1.7 1.7s-1.7-.7-1.7-1.7v-16.3c0-1.7-1.4-3-3-3s-3 1.4-3 3v8.3c0 .6-.5 1.1-1.1 1.1h-.4c-.6 0-1.1-.5-1.1-1.1v-13h-2v13c0 1.7 1.4 3 3 3h.4c1.7 0 3-1.4 3-3v-8.3c0-.6.5-1.1 1.1-1.1s1.1.5 1.1 1.1v16.3c0 2 1.6 3.6 3.6 3.6s3.6-1.6 3.6-3.6v-28.2c3.7-.5 6.5-3.6 6.5-7.4s-2.9-7-6.5-7.4zm-16.3 17.2-12.1 12.1c-1.1 1.1-2.5 1.8-4 2-2.8.4-5.3 1.6-7.2 3.5l-9.2 9.2 1.4 1.4 9.2-9.2c1.6-1.6 3.7-2.6 6.1-3 1.9-.3 3.7-1.2 5.1-2.5l12.1-12.1zm-37.9-52.9c2 0 3.7-1.7 3.7-3.7s-1.7-3.7-3.7-3.7-3.7 1.7-3.7 3.7 1.7 3.7 3.7 3.7zm0-5.5c1 0 1.8.8 1.8 1.8s-.8 1.8-1.8 1.8-1.8-.8-1.8-1.8.8-1.8 1.8-1.8zm45.5 7.2c1.5 0 2.7-1.2 2.7-2.7s-1.2-2.7-2.7-2.7-2.7 1.2-2.7 2.7 1.2 2.7 2.7 2.7zm0-3.5c.4 0 .8.3.8.8s-.3.8-.8.8-.8-.3-.8-.8.3-.8.8-.8zm-47.3 16.6c1.6 0 2.9-1.3 2.9-2.9s-1.3-2.9-2.9-2.9-2.9 1.3-2.9 2.9 1.3 2.9 2.9 2.9zm0-3.8c.5 0 .9.4.9.9s-.4.9-.9.9-.9-.4-.9-.9.4-.9.9-.9zm61 11.7c-2 0-3.7 1.7-3.7 3.7s1.7 3.7 3.7 3.7 3.7-1.7 3.7-3.7-1.7-3.7-3.7-3.7zm0 5.5c-1 0-1.8-.8-1.8-1.8s.8-1.8 1.8-1.8 1.8.8 1.8 1.8-.8 1.8-1.8 1.8z"/></svg>