<svg width="94" height="86" viewBox="0 0 94 86" fill="none" xmlns="http://www.w3.org/2000/svg">
    <path d="M91.59 2.1582C90.4917 1.06391 89.0046 0.44948 87.4542 0.44948C85.9039 0.44948 84.4167 1.06391 83.3185 2.1582L67.5079 17.9629C66.8893 18.5837 66.0503 18.9347 65.1739 18.9395H63.8263C64.7778 18.1704 65.5462 17.1991 66.0756 16.0961C66.605 14.993 66.8821 13.786 66.8868 12.5625V8.73633C66.8868 6.53741 66.0133 4.42856 64.4585 2.87369C62.9036 1.31883 60.7947 0.445313 58.5958 0.445313C56.3969 0.445313 54.2881 1.31883 52.7332 2.87369C51.1783 4.42856 50.3048 6.53741 50.3048 8.73633V12.5547C50.3092 13.778 50.5859 14.985 51.115 16.0881C51.644 17.1911 52.4121 18.1625 53.3634 18.9316H40.631C41.5823 18.1625 42.3504 17.1911 42.8794 16.0881C43.4085 14.985 43.6852 13.778 43.6896 12.5547V8.73633C43.6896 6.53741 42.8161 4.42856 41.2612 2.87369C39.7063 1.31883 37.5975 0.445313 35.3986 0.445312C33.1996 0.445313 31.0908 1.31883 29.5359 2.87369C27.9811 4.42856 27.1075 6.53741 27.1075 8.73633V12.5547C27.1123 13.7782 27.3894 14.9852 27.9188 16.0883C28.4482 17.1913 29.2165 18.1626 30.1681 18.9316H28.8204C27.944 18.9269 27.1051 18.5759 26.4864 17.9551L10.672 2.15625C9.56398 1.11777 8.09544 0.551048 6.57705 0.57599C5.05866 0.600933 3.60953 1.21558 2.53623 2.2899C1.46292 3.36421 0.849648 4.81393 0.826141 6.33234C0.802634 7.85075 1.37074 9.31876 2.41027 10.4258L22.7228 30.7383C23.5004 31.511 24.1168 32.4305 24.5363 33.4434C24.9557 34.4563 25.1698 35.5424 25.1661 36.6387V84.3887C25.1993 84.6742 25.3362 84.9375 25.5508 85.1287C25.7654 85.3198 26.0428 85.4254 26.3302 85.4254C26.6176 85.4254 26.895 85.3198 27.1096 85.1287C27.3242 84.9375 27.4611 84.6742 27.4943 84.3887V36.6328C27.4989 35.2303 27.225 33.8409 26.6886 32.5451C26.1522 31.2493 25.3638 30.0728 24.3693 29.084L4.06066 8.7793C3.40099 8.12014 3.03018 7.22593 3.02981 6.29337C3.02945 5.36082 3.39955 4.46632 4.05871 3.80664C4.71786 3.14697 5.61208 2.77616 6.54463 2.77579C7.47718 2.77543 8.37169 3.14553 9.03136 3.80469L24.838 19.6094C25.8961 20.6629 27.3273 21.256 28.8204 21.2598H51.256L46.1778 26.3379C45.9604 26.5571 45.8383 26.8533 45.838 27.1621V84.3887C45.819 84.5529 45.8348 84.7192 45.8846 84.8768C45.9344 85.0344 46.017 85.1797 46.127 85.3032C46.2369 85.4266 46.3717 85.5254 46.5225 85.593C46.6734 85.6607 46.8368 85.6956 47.0021 85.6956C47.1674 85.6956 47.3308 85.6607 47.4816 85.593C47.6324 85.5254 47.7672 85.4266 47.8772 85.3032C47.9871 85.1797 48.0697 85.0344 48.1195 84.8768C48.1693 84.7192 48.1852 84.5529 48.1661 84.3887V27.6465L54.4005 21.4141C54.4415 21.3711 54.4278 21.3066 54.463 21.2598H65.1818C66.6749 21.256 68.1061 20.6629 69.1642 19.6094L84.9669 3.80664C85.2934 3.48 85.6811 3.22088 86.1077 3.04405C86.5344 2.86723 86.9917 2.77617 87.4535 2.77608C87.9154 2.77599 88.3727 2.86687 88.7994 3.04352C89.2262 3.22018 89.6139 3.47915 89.9405 3.80566C90.2672 4.13217 90.5263 4.51982 90.7031 4.94648C90.88 5.37313 90.971 5.83043 90.9711 6.29228C90.9712 6.75412 90.8803 7.21146 90.7037 7.63819C90.527 8.06491 90.268 8.45266 89.9415 8.7793L69.6446 29.0918C68.6497 30.0807 67.8611 31.2575 67.3246 32.5537C66.7882 33.8499 66.5145 35.2397 66.5196 36.6426V84.3887C66.5528 84.6742 66.6897 84.9375 66.9043 85.1287C67.1189 85.3198 67.3963 85.4254 67.6837 85.4254C67.9711 85.4254 68.2485 85.3198 68.4631 85.1287C68.6777 84.9375 68.8146 84.6742 68.8478 84.3887V36.6328C68.8441 35.5359 69.0586 34.4492 69.4788 33.4359C69.8989 32.4226 70.5163 31.503 71.295 30.7305L91.5958 10.418C92.6858 9.31945 93.2969 7.83436 93.2958 6.28688C93.2947 4.73939 92.6815 3.25517 91.59 2.1582ZM52.6388 12.5547V8.73633C52.6388 7.15487 53.267 5.63819 54.3853 4.51993C55.5035 3.40167 57.0202 2.77344 58.6017 2.77344C60.1831 2.77344 61.6998 3.40167 62.8181 4.51993C63.9363 5.63819 64.5646 7.15487 64.5646 8.73633V12.5547C64.5646 14.1361 63.9363 15.6528 62.8181 16.7711C61.6998 17.8893 60.1831 18.5176 58.6017 18.5176C57.0202 18.5176 55.5035 17.8893 54.3853 16.7711C53.267 15.6528 52.6388 14.1361 52.6388 12.5547ZM29.4357 12.5547V8.73633C29.4357 7.15487 30.0639 5.63819 31.1821 4.51993C32.3004 3.40167 33.8171 2.77344 35.3986 2.77344C36.98 2.77344 38.4967 3.40167 39.615 4.51993C40.7332 5.63819 41.3614 7.15487 41.3614 8.73633V12.5547C41.3614 14.1361 40.7332 15.6528 39.615 16.7711C38.4967 17.8893 36.98 18.5176 35.3986 18.5176C33.8171 18.5176 32.3004 17.8893 31.1821 16.7711C30.0639 15.6528 29.4357 14.1361 29.4357 12.5547Z" />
    <path d="M36.9824 59.1582C36.6716 59.1582 36.3735 59.2817 36.1538 59.5014C35.934 59.7212 35.8105 60.0193 35.8105 60.3301V84.3887C35.7915 84.5529 35.8074 84.7192 35.8572 84.8768C35.907 85.0345 35.9896 85.1797 36.0995 85.3032C36.2094 85.4266 36.3443 85.5254 36.4951 85.593C36.6459 85.6607 36.8093 85.6956 36.9746 85.6956C37.1399 85.6956 37.3033 85.6607 37.4541 85.593C37.605 85.5254 37.7398 85.4266 37.8497 85.3032C37.9596 85.1797 38.0422 85.0345 38.092 84.8768C38.1418 84.7192 38.1577 84.5529 38.1387 84.3887V60.3223C38.1367 60.0155 38.0144 59.7218 37.7982 59.5041C37.5821 59.2865 37.2892 59.1623 36.9824 59.1582Z" />
    <path d="M57.6602 59.1582C57.3494 59.1582 57.0513 59.2817 56.8315 59.5014C56.6118 59.7212 56.4883 60.0193 56.4883 60.3301V84.3887C56.5214 84.6742 56.6583 84.9375 56.8729 85.1287C57.0876 85.3198 57.3649 85.4255 57.6523 85.4255C57.9398 85.4255 58.2171 85.3198 58.4318 85.1287C58.6464 84.9375 58.7833 84.6742 58.8164 84.3887V60.3223C58.8144 60.0155 58.6922 59.7218 58.476 59.5041C58.2598 59.2865 57.9669 59.1623 57.6602 59.1582Z" />
</svg>
