<svg viewBox="0 0 94 86" xmlns="http://www.w3.org/2000/svg"><path d="m91.6 2.2c-1.1-1.1-2.6-1.7-4.1-1.7s-3 .6-4.1 1.7l-15.8 15.8c-.6.6-1.5 1-2.3 1h-1.3c1-.8 1.7-1.7 2.2-2.8s.8-2.3.8-3.5v-3.8c0-2.2-.9-4.3-2.4-5.9-1.6-1.6-3.7-2.4-5.9-2.4s-4.3.9-5.9 2.4c-1.6 1.6-2.4 3.7-2.4 5.9v3.8c0 1.2.3 2.4.8 3.5s1.3 2.1 2.2 2.8h-12.7c1-.8 1.7-1.7 2.2-2.8s.8-2.3.8-3.5v-3.8c0-2.2-.9-4.3-2.4-5.9-1.6-1.6-3.7-2.4-5.9-2.4s-4.3.9-5.9 2.4c-1.6 1.6-2.4 3.7-2.4 5.9v3.8c0 1.2.3 2.4.8 3.5s1.3 2.1 2.2 2.8h-1.3c-.9 0-1.7-.4-2.3-1l-15.8-15.8c-1.1-1-2.6-1.6-4.1-1.6s-3 .6-4 1.7c-1.1 1.1-1.7 2.5-1.7 4s.5 3 1.6 4.1l20.3 20.3c.8.8 1.4 1.7 1.8 2.7s.6 2.1.6 3.2v47.8c0 .3.2.5.4.7s.5.3.8.3.6-.1.8-.3.4-.5.4-.7v-47.8c0-1.4-.3-2.8-.8-4.1s-1.3-2.5-2.3-3.5l-20.4-20.2c-.7-.7-1-1.6-1-2.5s.4-1.8 1-2.5c.7-.7 1.6-1 2.5-1s1.8.4 2.5 1l15.8 15.8c1.1 1.1 2.5 1.6 4 1.7h22.4l-5.1 5.1c-.2.2-.3.5-.3.8v57.2.5c0 .2.1.3.2.4s.2.2.4.3c.2 0 .3.1.5.1s.3 0 .5-.1c.2 0 .3-.2.4-.3s.2-.3.2-.4 0-.3 0-.5v-56.8l6.2-6.2s0-.1 0-.2h10.7c1.5 0 2.9-.6 4-1.7l15.8-15.8c.3-.3.7-.6 1.1-.8s.9-.3 1.3-.3c.5 0 .9 0 1.3.3.4.2.8.4 1.1.8.3.3.6.7.8 1.1s.3.9.3 1.3c0 .5 0 .9-.3 1.3-.2.4-.4.8-.8 1.1l-20.3 20.3c-1 1-1.8 2.2-2.3 3.5s-.8 2.7-.8 4.1v47.7c0 .3.2.5.4.7s.5.3.8.3.6-.1.8-.3.4-.5.4-.7v-47.8c0-1.1.2-2.2.6-3.2s1-1.9 1.8-2.7l20.3-20.3c1.1-1.1 1.7-2.6 1.7-4.1s-.6-3-1.7-4.1zm-39 10.4v-3.8c0-1.6.6-3.1 1.7-4.2s2.6-1.7 4.2-1.7 3.1.6 4.2 1.7 1.7 2.6 1.7 4.2v3.8c0 1.6-.6 3.1-1.7 4.2s-2.6 1.7-4.2 1.7-3.1-.6-4.2-1.7-1.7-2.6-1.7-4.2zm-23.2 0v-3.8c0-1.6.6-3.1 1.7-4.2s2.6-1.7 4.2-1.7 3.1.6 4.2 1.7 1.7 2.6 1.7 4.2v3.8c0 1.6-.6 3.1-1.7 4.2s-2.6 1.7-4.2 1.7-3.1-.6-4.2-1.7-1.7-2.6-1.7-4.2zm7.5 46.6c-.3 0-.6.1-.8.3s-.3.5-.3.8v24.1.5c0 .2.1.3.2.4s.2.2.4.3c.2 0 .3.1.5.1s.3 0 .5-.1c.2 0 .3-.2.4-.3s.2-.3.2-.4c0-.2 0-.3 0-.5v-24.1c0-.3-.1-.6-.3-.8s-.5-.3-.8-.3zm20.7 0c-.3 0-.6.1-.8.3s-.3.5-.3.8v24.1c0 .3.2.5.4.7s.5.3.8.3.6-.1.8-.3.4-.5.4-.7v-24.1c0-.3-.1-.6-.3-.8s-.5-.3-.8-.3z"/></svg>