<svg width="16" height="16" viewBox="0 0 16 16" fill="none" xmlns="http://www.w3.org/2000/svg">
<path d="M1.60201 4.70727L7.99961 7.90567L14.3972 4.70727C14.3735 4.29963 14.1949 3.91646 13.8979 3.63625C13.6009 3.35605 13.2079 3.2 12.7996 3.20007H3.19961C2.79128 3.2 2.39837 3.35605 2.10135 3.63625C1.80434 3.91646 1.62569 4.29963 1.60201 4.70727Z" fill="#111827"/>
<path d="M14.3996 6.49447L7.99961 9.69447L1.59961 6.49447V11.2001C1.59961 11.6244 1.76818 12.0314 2.06824 12.3314C2.3683 12.6315 2.77526 12.8001 3.19961 12.8001H12.7996C13.224 12.8001 13.6309 12.6315 13.931 12.3314C14.231 12.0314 14.3996 11.6244 14.3996 11.2001V6.49447Z" fill="#111827"/>
</svg>
