<svg viewBox="0 0 92 88" xmlns="http://www.w3.org/2000/svg"><path d="m83.2 74.9c1.2-.9 2.2-2.1 2.7-3.6.5-1.4.5-3 0-4.4s-1.4-2.7-2.6-3.6-2.7-1.4-4.2-1.4-3 .5-4.2 1.4-2.1 2.2-2.6 3.6-.4 3 0 4.4c.5 1.4 1.4 2.7 2.7 3.6-1.6.6-3.1 1.5-4.4 2.7s-2.3 2.6-3 4.2c-.7-1.6-1.7-3-3-4.2s-2.8-2.1-4.4-2.7c1.2-.9 2.2-2.1 2.7-3.6.5-1.4.5-3 0-4.4s-1.4-2.7-2.6-3.6-2.7-1.4-4.2-1.4-3 .5-4.2 1.4-2.1 2.2-2.6 3.6-.4 3 0 4.4c.5 1.4 1.4 2.7 2.7 3.6-2.4.9-4.6 2.4-6.1 4.6-1.5 2.1-2.3 4.6-2.3 7.2v.4c0 .1.1.2.2.3 0 0 .2.2.3.2h.4s.3 0 .4 0 .2-.1.3-.2.2-.2.2-.3 0-.3 0-.4c0-2.8 1.2-5.4 3.1-7.3 2-1.9 4.6-3 7.4-3s5.4 1.1 7.4 3 3.1 4.6 3.1 7.3c0 .3.1.5.3.7s.4.3.7.3.5-.1.7-.3.3-.4.3-.7c0-2.8 1.2-5.4 3.1-7.3 2-1.9 4.6-3 7.4-3s5.4 1.1 7.4 3 3.1 4.6 3.1 7.3c0 .3.1.5.3.7s.4.3.7.3.5-.1.7-.3.3-.4.3-.7c0-2.6-.8-5.1-2.3-7.2s-3.6-3.7-6.1-4.6zm-32.2-5.8c0-1 .3-2 .9-2.9.6-.8 1.4-1.5 2.3-1.9s2-.5 3-.3 1.9.7 2.6 1.4 1.2 1.6 1.4 2.6 0 2-.3 3c-.4.9-1 1.7-1.9 2.3-.8.6-1.8.9-2.9.9-1.4 0-2.7-.5-3.6-1.5-1-1-1.5-2.3-1.5-3.6zm23 0c0-1 .3-2 .9-2.9.6-.8 1.4-1.5 2.3-1.9s2-.5 3-.3 1.9.7 2.6 1.4 1.2 1.6 1.4 2.6 0 2-.3 3c-.4.9-1 1.7-1.9 2.3-.8.6-1.8.9-2.9.9-1.4 0-2.7-.5-3.6-1.5s-1.5-2.3-1.5-3.6zm6.8-38.9s0 0 0 0 0 0 0-.1c1.8-3.1 2.3-6.7 1.4-10.2-.9-3.4-3.1-6.4-6.2-8.2s-6.7-2.3-10.1-1.4-6.4 3.1-8.2 6.2-2.3 6.7-1.4 10.1 3.1 6.4 6.1 8.2 6.7 2.4 10.1 1.5 6.4-3.1 8.2-6.1zm0-7c0 1.7-.4 3.5-1.2 5l-9.3-5.6v-10.8c2.8.3 5.5 1.6 7.4 3.7s3 4.9 3 7.7zm-22.9 0c0-2.9 1.1-5.6 3-7.7s4.6-3.4 7.4-3.7v22.8c-2.8-.3-5.5-1.6-7.4-3.7s-3-4.9-3-7.7zm12.4 11.4v-9.6l8.2 5c-1 1.3-2.2 2.4-3.6 3.2s-3 1.3-4.6 1.4zm-27.7-7c-.3 0-.5.1-.7.3s-.3.4-.3.7.1.5.3.7.4.3.7.3h6.1c.3 0 .5-.1.7-.3s.3-.4.3-.7-.1-.5-.3-.7-.4-.3-.7-.3zm15.5 21.2c.9-.7 1.4-1.7 1.6-2.8.1-1.1-.2-2.2-.9-3.1s-1.7-1.5-2.8-1.6c-1.1-.2-2.2.1-3.2.8l-8.9 6.6-5.9-7.9c-2.9-4-6.1-6-10.4-6.7 1.6-1.2 2.8-2.8 3.5-4.7.6-1.9.6-3.9 0-5.8s-1.8-3.6-3.4-4.7c-1.6-1.2-3.6-1.8-5.5-1.8-2 0-3.9.6-5.6 1.8-1.6 1.2-2.8 2.8-3.5 4.7s-.6 3.9 0 5.8 1.8 3.6 3.4 4.7c-2.6.5-4.9 1.8-6.6 3.8s-2.6 4.5-2.6 7.1v18.8c0 .5.1 1.1.3 1.6s.5 1 .9 1.3c.4.4.9.7 1.4.9s1.1.3 1.6.3c.8 0 1.5-.2 2.1-.6v19.5c0 .3.1.5.3.7s.4.3.7.3.5-.1.7-.3.3-.4.3-.7v-38.4c0-.3-.1-.5-.3-.7s-.4-.3-.7-.3-.5.1-.7.3-.3.4-.3.7v15.4c0 .6-.2 1.1-.6 1.5s-1 .6-1.5.6-1.1-.2-1.5-.6-.6-1-.6-1.5v-18.8c0-2.4 1-4.7 2.7-6.4s4-2.7 6.4-2.7h5.9c6.3 0 9.4 2.4 12.1 6.1l6.5 8.7c.2.2.4.4.7.4s.5 0 .7-.2l9.7-7.2c.2-.2.5-.3.8-.4h.9c.3 0 .6.2.8.3.3.2.5.4.7.6.4.5.5 1.1.4 1.7 0 .6-.4 1.1-.8 1.5l-9.7 7.8c-1.2.9-2.7 1.4-4.1 1.2-1.5-.1-2.9-.9-3.8-2l-5.6-6.7c-.1-.2-.3-.3-.5-.3s-.4 0-.6 0-.4.2-.5.4-.2.4-.2.6v38.5c0 .3.1.5.3.7s.4.3.7.3.5-.1.7-.3.3-.4.3-.7v-35.8l3.8 4.6c1.3 1.5 3.2 2.5 5.2 2.7s4-.4 5.6-1.6l9.7-7.8zm-43.4-22.5c0-1.5.4-2.9 1.3-4.1.8-1.2 2-2.2 3.3-2.7 1.4-.6 2.9-.7 4.3-.4s2.8 1 3.8 2 1.8 2.4 2 3.8c.3 1.4.1 2.9-.4 4.3-.6 1.4-1.5 2.5-2.7 3.3s-2.7 1.3-4.1 1.3c-2 0-3.9-.8-5.3-2.2s-2.2-3.3-2.2-5.3zm9 37.4c-.3 0-.5.1-.7.3s-.3.4-.3.7v22c0 .3.1.5.3.7s.4.3.7.3.5-.1.7-.3.3-.4.3-.7v-22c0-.3-.1-.5-.3-.7s-.4-.3-.7-.3zm62.1-10.1h-28.9c-.3 0-.5.1-.7.3s-.3.4-.3.7.1.5.3.7.4.3.7.3h29.9c.3 0 .5-.1.7-.3s.3-.4.3-.7v-53.3c0-.3-.1-.5-.3-.7s-.4-.3-.7-.3h-85.4c-.1 0-.3 0-.4 0s-.2.1-.3.2c0 0-.2.2-.2.3v.4 39.3.4c0 .1.1.2.2.3 0 0 .2.2.3.2h.4s.3 0 .4 0 .2-.1.3-.2c0 0 .2-.2.2-.3s0-.3 0-.4v-38.2h83.4v51.3z"/></svg>