<svg width="92" height="88" viewBox="0 0 92 88" fill="none" xmlns="http://www.w3.org/2000/svg">
    <path d="M83.2188 74.9414C84.4611 74.0707 85.3936 72.8267 85.8809 71.39C86.3681 69.9532 86.3846 68.3986 85.9281 66.9518C85.4716 65.505 84.5658 64.2414 83.3423 63.3444C82.1187 62.4475 80.6411 61.9639 79.124 61.9639C77.6069 61.9639 76.1293 62.4475 74.9058 63.3444C73.6822 64.2414 72.7764 65.505 72.3199 66.9518C71.8634 68.3986 71.88 69.9532 72.3672 71.39C72.8544 72.8267 73.7869 74.0707 75.0293 74.9414C73.3877 75.5161 71.8836 76.4259 70.6126 77.6132C69.3416 78.8005 68.3315 80.2392 67.6465 81.8379C66.9608 80.2386 65.9498 78.7996 64.6778 77.6122C63.4057 76.4249 61.9005 75.5154 60.2578 74.9414C61.5002 74.0707 62.4327 72.8267 62.9199 71.39C63.4071 69.9532 63.4237 68.3986 62.9672 66.9518C62.5107 65.505 61.6049 64.2414 60.3814 63.3444C59.1578 62.4475 57.6802 61.9639 56.1631 61.9639C54.646 61.9639 53.1684 62.4475 51.9448 63.3444C50.7213 64.2414 49.8155 65.505 49.359 66.9518C48.9025 68.3986 48.919 69.9532 49.4063 71.39C49.8935 72.8267 50.826 74.0707 52.0684 74.9414C49.6237 75.7951 47.5045 77.387 46.0035 79.4971C44.5026 81.6071 43.694 84.1313 43.6895 86.7207C43.6895 86.8515 43.7152 86.981 43.7653 87.1019C43.8153 87.2228 43.8887 87.3326 43.9812 87.4251C44.0737 87.5176 44.1835 87.5909 44.3044 87.641C44.4252 87.691 44.5547 87.7168 44.6855 87.7168C44.8164 87.7168 44.9459 87.691 45.0667 87.641C45.1876 87.5909 45.2974 87.5176 45.3899 87.4251C45.4824 87.3326 45.5558 87.2228 45.6058 87.1019C45.6559 86.981 45.6816 86.8515 45.6816 86.7207C45.7192 83.9656 46.8401 81.3362 48.8017 79.4012C50.7632 77.4662 53.4078 76.3814 56.1631 76.3814C58.9184 76.3814 61.563 77.4662 63.5245 79.4012C65.4861 81.3362 66.6069 83.9656 66.6445 86.7207C66.6445 86.9849 66.7495 87.2383 66.9363 87.4251C67.1231 87.6119 67.3764 87.7168 67.6406 87.7168C67.9048 87.7168 68.1582 87.6119 68.345 87.4251C68.5318 87.2383 68.6367 86.9849 68.6367 86.7207C68.6743 83.9656 69.7952 81.3362 71.7567 79.4012C73.7183 77.4662 76.3628 76.3814 79.1182 76.3814C81.8735 76.3814 84.518 77.4662 86.4796 79.4012C88.4412 81.3362 89.562 83.9656 89.5996 86.7207C89.5996 86.9849 89.7046 87.2383 89.8914 87.4251C90.0782 87.6119 90.3315 87.7168 90.5957 87.7168C90.8599 87.7168 91.1132 87.6119 91.3 87.4251C91.4869 87.2383 91.5918 86.9849 91.5918 86.7207C91.5877 84.132 90.78 81.6084 89.2801 79.4984C87.7803 77.3884 85.6623 75.7961 83.2188 74.9414ZM51.0273 69.1074C51.0273 68.0908 51.3288 67.097 51.8936 66.2517C52.4583 65.4063 53.2611 64.7474 54.2003 64.3583C55.1395 63.9692 56.173 63.8672 57.1701 64.0654C58.1673 64.2636 59.0832 64.753 59.8022 65.4718C60.5213 66.1905 61.011 67.1063 61.2096 68.1033C61.4082 69.1004 61.3066 70.134 60.9178 71.0733C60.5291 72.0127 59.8705 72.8157 59.0254 73.3808C58.1803 73.9458 57.1866 74.2477 56.1699 74.2481C54.8068 74.2465 53.5 73.7045 52.536 72.7408C51.5719 71.7771 51.0294 70.4705 51.0273 69.1074ZM73.9824 69.1074C73.9824 68.0907 74.2839 67.0968 74.8488 66.2515C75.4136 65.4061 76.2165 64.7472 77.1558 64.3581C78.0951 63.969 79.1288 63.8672 80.1259 64.0656C81.1231 64.2639 82.0391 64.7535 82.758 65.4725C83.4769 66.1914 83.9665 67.1074 84.1649 68.1045C84.3632 69.1017 84.2614 70.1353 83.8724 71.0747C83.4833 72.014 82.8244 72.8168 81.979 73.3817C81.1337 73.9466 80.1398 74.2481 79.123 74.2481C77.7601 74.2465 76.4535 73.7044 75.4898 72.7407C74.5261 71.777 73.984 70.4703 73.9824 69.1074Z" />
    <path d="M80.7541 30.2539C80.7765 30.2269 80.7967 30.1982 80.8146 30.168C80.8355 30.1343 80.8538 30.099 80.8693 30.0625C82.647 26.9904 83.1353 23.3392 82.2273 19.908C81.3193 16.4767 79.0889 13.5449 76.0244 11.7542C72.9598 9.96355 69.3107 9.45985 65.8756 10.3534C62.4406 11.2469 59.4994 13.4648 57.6958 16.5218C55.8922 19.5787 55.3731 23.2257 56.2521 26.6645C57.131 30.1033 59.3365 33.0539 62.3859 34.8704C65.4352 36.6869 69.0799 37.2214 72.5224 36.3569C75.9649 35.4925 78.9247 33.2994 80.7541 30.2578V30.2539ZM80.7541 23.2363C80.7541 24.9792 80.3532 26.6987 79.5822 28.2617L70.3185 22.6738V11.8555C73.1643 12.1076 75.8128 13.4153 77.7432 15.5213C79.6736 17.6274 80.7462 20.3794 80.7502 23.2363H80.7541ZM57.9025 23.2363C57.906 20.3793 58.9785 17.627 60.909 15.5209C62.8395 13.4147 65.4882 12.1072 68.3342 11.8555V34.625C65.4857 34.3746 62.8342 33.0666 60.902 30.9587C58.9698 28.8508 57.8969 26.0958 57.8947 23.2363H57.9025ZM70.3185 34.625V25L78.551 29.9668C77.5905 31.2857 76.359 32.3837 74.939 33.1872C73.5191 33.9906 71.9436 34.4809 70.3185 34.625Z" />
    <path d="M42.5703 27.5938C42.3061 27.5937 42.0528 27.6987 41.866 27.8855C41.6792 28.0723 41.5742 28.3257 41.5742 28.5898C41.5742 28.854 41.6792 29.1074 41.866 29.2942C42.0528 29.481 42.3061 29.5859 42.5703 29.5859H48.6367C48.9009 29.5859 49.1543 29.481 49.3411 29.2942C49.5279 29.1074 49.6328 28.854 49.6328 28.5898C49.6328 28.3257 49.5279 28.0723 49.3411 27.8855C49.1543 27.6987 48.9009 27.5938 48.6367 27.5938H42.5703Z" />
    <path d="M58.0469 48.8243C58.9213 48.1172 59.4844 47.0962 59.616 45.9795C59.7476 44.8627 59.4372 43.7388 58.751 42.8478C58.0649 41.9569 57.0576 41.3697 55.9442 41.2116C54.8309 41.0536 53.6999 41.3373 52.793 42.002L43.9316 48.5684L38.0723 40.6759C35.1289 36.7149 31.9668 34.6563 27.6309 34.0177C29.2538 32.8554 30.4668 31.2089 31.0958 29.3143C31.7247 27.4198 31.7373 25.3747 31.1316 23.4726C30.526 21.5705 29.3332 19.9092 27.7247 18.7271C26.1161 17.5451 24.1744 16.903 22.1782 16.8932C20.182 16.8833 18.234 17.5062 16.6139 18.6723C14.9937 19.8384 13.7846 21.4879 13.1602 23.3839C12.5358 25.2799 12.5281 27.325 13.1383 29.2257C13.7485 31.1263 14.9452 32.7848 16.5566 33.963C13.9803 34.4131 11.6447 35.7558 9.95941 37.7558C8.27411 39.7557 7.3467 42.2851 7.33984 44.9005V63.7266C7.34239 64.2755 7.4534 64.8184 7.6665 65.3241C7.87959 65.8299 8.19057 66.2886 8.58154 66.6737C8.97251 67.0589 9.43577 67.363 9.94467 67.5685C10.4536 67.774 10.9981 67.8768 11.5469 67.8712C12.305 67.8724 13.0487 67.6635 13.6953 67.2677V86.7306C13.6953 86.9947 13.8003 87.2481 13.9871 87.4349C14.1739 87.6217 14.4272 87.7266 14.6914 87.7266C14.9556 87.7266 15.2089 87.6217 15.3958 87.4349C15.5826 87.2481 15.6875 86.9947 15.6875 86.7306V48.3731C15.6875 48.109 15.5826 47.8556 15.3958 47.6688C15.2089 47.482 14.9556 47.377 14.6914 47.377C14.4272 47.377 14.1739 47.482 13.9871 47.6688C13.8003 47.8556 13.6953 48.109 13.6953 48.3731V63.7266C13.6953 64.3053 13.4655 64.8602 13.0563 65.2693C12.6472 65.6784 12.0923 65.9083 11.5137 65.9083C10.9351 65.9083 10.3802 65.6784 9.97102 65.2693C9.56188 64.8602 9.33203 64.3053 9.33203 63.7266V44.9063C9.33668 42.4911 10.2984 40.1762 12.0066 38.4688C13.7148 36.7613 16.0301 35.8006 18.4453 35.797H24.3887C30.6699 35.797 33.7637 38.2266 36.4688 41.8731L42.9258 50.5645C43.0834 50.7762 43.3185 50.9167 43.5796 50.9552C43.8407 50.9936 44.1064 50.9269 44.3184 50.7696L53.9785 43.6095C54.224 43.4313 54.5022 43.3032 54.7972 43.2327C55.0922 43.1622 55.3982 43.1505 55.6978 43.1984C55.9973 43.2463 56.2844 43.3528 56.5427 43.5118C56.801 43.6708 57.0255 43.8792 57.2031 44.1251C57.5612 44.5984 57.7198 45.1931 57.645 45.7819C57.5701 46.3707 57.2678 46.9068 56.8027 47.2755L47.0762 55.0567C45.9047 55.9832 44.4192 56.4185 42.9329 56.2709C41.4467 56.1234 40.0758 55.4044 39.1094 54.2657L33.5098 47.5958C33.3782 47.4397 33.2019 47.3278 33.0047 47.2752C32.8074 47.2226 32.5988 47.2319 32.407 47.3018C32.2152 47.3717 32.0495 47.4988 31.9323 47.666C31.8152 47.8331 31.7522 48.0323 31.752 48.2364V86.7208C31.752 86.985 31.8569 87.2383 32.0437 87.4251C32.2305 87.6119 32.4839 87.7169 32.748 87.7169C33.0122 87.7169 33.2656 87.6119 33.4524 87.4251C33.6392 87.2383 33.7441 86.985 33.7441 86.7208V50.9649L37.5859 55.5391C38.8895 57.074 40.7378 58.0429 42.7417 58.2418C44.7455 58.4408 46.7483 57.8541 48.3281 56.6056L58.0469 48.8243ZM14.6738 26.3419C14.6738 24.8674 15.1111 23.426 15.9302 22.2001C16.7494 20.9741 17.9137 20.0185 19.276 19.4543C20.6382 18.89 22.1372 18.7424 23.5833 19.0301C25.0295 19.3177 26.3578 20.0277 27.4004 21.0703C28.4431 22.113 29.1531 23.4413 29.4407 24.8875C29.7284 26.3336 29.5808 27.8326 29.0165 29.1948C28.4522 30.5571 27.4967 31.7214 26.2707 32.5406C25.0447 33.3597 23.6034 33.797 22.1289 33.797C20.1525 33.7944 18.2578 33.0081 16.8602 31.6106C15.4627 30.213 14.6764 28.3183 14.6738 26.3419Z" />
    <path d="M23.6445 63.707C23.3803 63.707 23.127 63.812 22.9402 63.9988C22.7534 64.1856 22.6484 64.4389 22.6484 64.7031V86.7207C22.6484 86.9849 22.7534 87.2382 22.9402 87.425C23.127 87.6119 23.3803 87.7168 23.6445 87.7168C23.9087 87.7168 24.1621 87.6119 24.3489 87.425C24.5357 87.2382 24.6406 86.9849 24.6406 86.7207V64.7031C24.6406 64.4389 24.5357 64.1856 24.3489 63.9988C24.1621 63.812 23.9087 63.707 23.6445 63.707Z" />
    <path d="M85.7793 53.5898H56.8984C56.6343 53.5898 56.3809 53.6948 56.1941 53.8816C56.0073 54.0684 55.9023 54.3218 55.9023 54.5859C55.9023 54.8501 56.0073 55.1035 56.1941 55.2903C56.3809 55.4771 56.6343 55.582 56.8984 55.582H86.7812C87.0454 55.582 87.2988 55.4771 87.4856 55.2903C87.6724 55.1035 87.7773 54.8501 87.7773 54.5859V1.2793C87.7773 1.01512 87.6724 0.761756 87.4856 0.574952C87.2988 0.388148 87.0454 0.283203 86.7812 0.283203H1.39844C1.26763 0.283203 1.1381 0.308969 1.01725 0.359027C0.896397 0.409085 0.786589 0.482456 0.694093 0.574952C0.601597 0.667448 0.528225 0.777257 0.478167 0.898108C0.428108 1.01896 0.402344 1.14849 0.402344 1.2793V40.5723C0.402344 40.7031 0.428108 40.8326 0.478167 40.9535C0.528225 41.0743 0.601597 41.1841 0.694093 41.2766C0.786589 41.3691 0.896397 41.4425 1.01725 41.4925C1.1381 41.5426 1.26763 41.5684 1.39844 41.5684C1.52925 41.5684 1.65877 41.5426 1.77963 41.4925C1.90048 41.4425 2.01029 41.3691 2.10278 41.2766C2.19528 41.1841 2.26865 41.0743 2.31871 40.9535C2.36877 40.8326 2.39453 40.7031 2.39453 40.5723V2.27539H85.7793V53.5898Z" />
</svg>
