<svg width="16" height="16" viewBox="0 0 16 16" fill="none" xmlns="http://www.w3.org/2000/svg">
<path d="M1.60059 2.39998C1.60059 1.95815 1.95876 1.59998 2.40059 1.59998H4.12288C4.51396 1.59998 4.84771 1.88271 4.912 2.26846L5.50345 5.81716C5.56119 6.16358 5.38623 6.50715 5.07211 6.66422L3.83359 7.28347C4.72663 9.50263 6.49793 11.2739 8.71709 12.167L9.33635 10.9285C9.49341 10.6143 9.83698 10.4394 10.1834 10.4971L13.7321 11.0886C14.1179 11.1529 14.4006 11.4866 14.4006 11.8777V13.6C14.4006 14.0418 14.0424 14.4 13.6006 14.4H12.0006C6.25682 14.4 1.60059 9.74374 1.60059 3.99998V2.39998Z" fill="#111827"/>
</svg>
