<svg width="96" height="98" viewBox="0 0 96 98" fill="none" xmlns="http://www.w3.org/2000/svg">
    <path d="M95.6212 78.5909C95.3182 76.8788 94.3485 75.3939 92.9242 74.4091L77.7424 63.8939C77.2121 63.5303 76.5757 63.3939 75.9394 63.5C75.4394 63.5909 75 63.8333 74.6515 64.197L65.2272 57.6667C66.1666 55.7424 66.9091 53.7879 67.3636 51.8333L67.5454 51.9545C68.1666 52.3939 68.8939 52.6212 69.6515 52.6212C69.8788 52.6212 70.0909 52.606 70.3182 52.5606C71.2879 52.3788 72.1363 51.8333 72.6969 51.0303C73.8636 49.3485 73.4394 47.0454 71.7576 45.8788L62.5151 39.4848C63.1666 35.8788 63.5151 32.2576 63.5151 28.7121V20.6818C63.5151 18.1212 61.7121 15.8485 59.1363 15.1818C54.0909 13.8788 50.1515 9.93938 48.8333 4.90908C48.1818 2.31817 45.9242 0.515137 43.3636 0.515137H20.4545C17.8939 0.515137 15.6212 2.31817 14.9545 4.89392C13.6363 9.92423 9.69695 13.8636 4.65149 15.1667C2.07574 15.8333 0.272705 18.106 0.272705 20.6667V28.697C0.272705 45.4697 7.33331 61.6515 19.6666 73.0909L25.2576 78.2879H16.0151C14.106 78.2879 12.5606 79.8333 12.5606 81.7273V86.8485H10.0757C7.63634 86.8485 5.63634 88.8333 5.63634 91.2576V96.0151H2.54543C2.13634 96.0151 1.80301 96.3485 1.80301 96.7576C1.80301 97.1666 2.13634 97.4848 2.54543 97.4848H70.3788C70.7879 97.4848 71.1212 97.1515 71.1212 96.7424C71.1212 96.3333 70.7879 96 70.3788 96H65.0151V91.2424C65.0151 88.803 63.0303 86.8333 60.5757 86.8333H58.0909V81.7121C58.0909 79.8182 56.5454 78.2727 54.6363 78.2727H38.5606L45.8636 71.4697L51.3788 75.2879C52.0151 75.7273 52.7576 75.9394 53.4848 75.9394C54.6666 75.9394 55.8182 75.3788 56.5303 74.3485C57.0909 73.5303 57.303 72.5454 57.1363 71.5757C56.9545 70.606 56.4091 69.7576 55.606 69.197L55.4242 69.0757C57.0909 67.9697 58.6666 66.5757 60.1363 65.0151L69.5606 71.5454C69.0757 72.5909 69.3788 73.8636 70.3636 74.5454L85.5454 85.0606C86.6515 85.8182 87.9242 86.2121 89.2272 86.2121C89.6212 86.2121 90.0151 86.1818 90.3939 86.106C92.106 85.803 93.5909 84.8333 94.5757 83.4091C95.5606 82.0151 95.9394 80.2879 95.6212 78.5909ZM70.9394 47.0909C71.9394 47.7879 72.1969 49.1666 71.5 50.1818C71.1666 50.6666 70.6515 51 70.0757 51.106C69.5 51.2121 68.9091 51.0909 68.4242 50.7424L49.4394 37.5909C48.9545 37.2576 48.6212 36.7424 48.5151 36.1667C48.4091 35.5909 48.5303 35 48.8788 34.5C49.2273 34 49.7272 33.6818 50.303 33.5757C50.4394 33.5454 50.5757 33.5454 50.6969 33.5454C51.1515 33.5454 51.5757 33.6818 51.9545 33.9394L70.9394 47.0909ZM47.0454 36.4242C47.2272 37.3939 47.7727 38.2424 48.5757 38.803L48.7576 38.9242C45.9242 40.803 43.3333 43.3939 41.1969 46.4697C40.2576 47.8182 39.4697 49.2273 38.7727 50.6666C36.8939 51.3636 34.9545 51.7424 32.9697 51.7424C23.8182 51.7424 16.3636 44.2879 16.3636 35.1212C16.3636 25.9545 23.803 18.5 32.9697 18.5C41.0606 18.5 47.9697 24.4091 49.3182 32.3182C48.6363 32.5909 48.0606 33.0454 47.6363 33.6515C47.0757 34.4697 46.8636 35.4394 47.0454 36.4242ZM60.5757 88.3182C62.1969 88.3182 63.5303 89.6364 63.5303 91.2424V96H7.12119V91.2424C7.12119 89.6212 8.43937 88.3182 10.0757 88.3182H60.5757ZM54.6515 79.7727C55.7424 79.7727 56.6212 80.6515 56.6212 81.7273V86.8485H14.0454V81.7273C14.0454 80.6515 14.9242 79.7727 16.0151 79.7727H54.6515ZM36.3788 78.2879H27.4242L20.6666 72C8.63634 60.8485 1.7424 45.0606 1.7424 28.697V20.6667C1.7424 18.7727 3.09089 17.106 5.01513 16.606C10.5757 15.1667 14.9242 10.8182 16.3788 5.27271C16.8939 3.31817 18.5303 1.99999 20.4394 1.99999H43.3485C45.2727 1.99999 46.9091 3.31817 47.4091 5.27271C48.8636 10.8182 53.2121 15.1667 58.7727 16.606C60.6969 17.106 62.0454 18.7727 62.0454 20.6667V28.697C62.0454 31.9394 61.7424 35.2424 61.1818 38.5454L52.7727 32.7273C52.1666 32.3182 51.4848 32.0909 50.7727 32.0757C49.303 23.4545 41.7727 17.0151 32.9697 17.0151C23 17.0151 14.8939 25.1363 14.8939 35.1212C14.8939 45.106 23 53.2273 32.9697 53.2273C34.6666 53.2273 36.3485 52.9848 37.9848 52.5151C37.5 53.7424 37.0757 54.9697 36.7879 56.2121L36.606 56.0909C34.9242 54.9242 32.6212 55.3485 31.4545 57.0303C30.2879 58.7121 30.7121 61.0151 32.3939 62.1818L44.6212 70.6515L36.3788 78.2879ZM55.6818 71.8788C55.7879 72.4545 55.6666 73.0454 55.3182 73.5303C54.6212 74.5303 53.2424 74.7879 52.2273 74.0909L33.2424 60.9394C32.7576 60.606 32.4242 60.0909 32.3182 59.5151C32.2121 58.9394 32.3333 58.3485 32.6818 57.8636C33.106 57.2424 33.803 56.9091 34.5151 56.9091C34.9545 56.9091 35.3939 57.0303 35.7727 57.303L54.7576 70.4545C55.2424 70.7879 55.5757 71.2879 55.6818 71.8788ZM54.1212 68.197L38.106 57.106C38.4848 55.2879 39.1212 53.4394 39.9545 51.6364C39.9848 51.5909 40 51.5454 40.0303 51.5C40.6969 50.0757 41.4848 48.6666 42.4242 47.3182C44.5757 44.2121 47.2121 41.6363 50.0757 39.8485L66.0909 50.9394C65.4091 54.2576 63.9242 57.6212 61.7727 60.7273C59.6212 63.8182 56.9848 66.3939 54.1212 68.197ZM62.9848 61.5606C63.5606 60.7273 64.0909 59.8636 64.5757 59L73.803 65.3939L70.3788 70.3333L61.1515 63.9394C61.7879 63.1818 62.4091 62.3939 62.9848 61.5606ZM93.3485 82.606C92.5909 83.7121 91.4394 84.4394 90.1212 84.6818C88.803 84.9242 87.4697 84.6363 86.3788 83.8636L71.1969 73.3485C70.7879 73.0606 70.6818 72.4848 70.9697 72.0757L75.6363 65.3485C75.7727 65.1515 75.9848 65.0151 76.2272 64.9697C76.4697 64.9242 76.7121 64.9848 76.9091 65.1212L92.0909 75.6364C93.1969 76.3939 93.9242 77.5454 94.1666 78.8636C94.4091 80.1666 94.1212 81.5 93.3485 82.606Z" />
    <path d="M36.1364 29.2728L31.3334 33.6062L29.9546 32.2274C28.6516 30.9243 26.3637 30.9243 25.0607 32.2274C23.7122 33.5759 23.7122 35.7728 25.0607 37.1213L28.7728 40.8334C29.4243 41.485 30.3031 41.8486 31.2122 41.8486C32.0758 41.8486 32.894 41.5304 33.5304 40.9547L40.7728 34.4092C42.1819 33.1213 42.3031 30.9395 41.0152 29.5153C39.7425 28.091 37.5455 27.985 36.1364 29.2728ZM39.788 33.3031L32.5455 39.8486C31.788 40.5304 30.5455 40.5001 29.8183 39.788L26.1213 36.091C25.7425 35.7122 25.5455 35.2274 25.5455 34.6971C25.5455 34.1668 25.7576 33.6668 26.1213 33.3031C26.5001 32.9243 26.9849 32.7274 27.5152 32.7274C28.0455 32.7274 28.5455 32.9395 28.9092 33.3031L30.788 35.1819C31.0607 35.4546 31.5152 35.4698 31.8031 35.2122L37.1213 30.394C37.9243 29.6668 39.1819 29.7274 39.9092 30.5304C40.6516 31.3183 40.591 32.5759 39.788 33.3031Z" />
</svg>
