<svg viewBox="0 0 96 98" xmlns="http://www.w3.org/2000/svg"><path d="m95.6 78.6c-.3-1.7-1.3-3.2-2.7-4.2l-15.2-10.5c-.5-.4-1.2-.5-1.8-.4-.5 0-.9.3-1.3.7l-9.4-6.5c.9-1.9 1.7-3.9 2.1-5.8h.2c.6.6 1.3.8 2.1.8s.4 0 .7 0c1-.2 1.8-.7 2.4-1.5 1.2-1.7.7-4-.9-5.2l-9.2-6.4c.7-3.6 1-7.2 1-10.8v-8c0-2.6-1.8-4.8-4.4-5.5-5-1.3-9-5.2-10.3-10.3-.7-2.6-2.9-4.4-5.5-4.4h-22.9c-2.6 0-4.8 1.8-5.5 4.4-1.3 5-5.3 9-10.3 10.3-2.6.7-4.4 2.9-4.4 5.5v8c0 16.8 7.1 33 19.4 44.4l5.6 5.2h-9.2c-1.9 0-3.5 1.5-3.5 3.4v5.1h-2.5c-2.4 0-4.4 2-4.4 4.4v4.8h-3.1c-.4 0-.7.3-.7.7s.3.7.7.7h67.8c.4 0 .7-.3.7-.7s-.3-.7-.7-.7h-5.4v-4.8c0-2.4-2-4.4-4.4-4.4h-2.5v-5.1c0-1.9-1.5-3.4-3.5-3.4h-16.1l7.3-6.8 5.5 3.8c.6.4 1.4.7 2.1.7 1.2 0 2.3-.6 3-1.6.6-.8.8-1.8.6-2.8s-.7-1.8-1.5-2.4h-.2c1.7-1.2 3.2-2.6 4.7-4.2l9.4 6.5c-.5 1-.2 2.3.8 3l15.2 10.5c1.1.8 2.4 1.2 3.7 1.2s.8 0 1.2-.1c1.7-.3 3.2-1.3 4.2-2.7s1.4-3.1 1-4.8zm-24.7-31.5c1 .7 1.3 2.1.6 3.1-.3.5-.8.8-1.4.9s-1.2 0-1.7-.4l-19-13.2c-.5-.3-.8-.8-.9-1.4s0-1.2.4-1.7.8-.8 1.4-.9h.4c.5 0 .9.1 1.3.4l19 13.2zm-23.9-10.7c.2 1 .7 1.8 1.5 2.4h.2c-2.8 2-5.4 4.6-7.6 7.7-.9 1.3-1.7 2.8-2.4 4.2-1.9.7-3.8 1.1-5.8 1.1-9.2 0-16.6-7.5-16.6-16.6s7.4-16.6 16.6-16.6 15 5.9 16.3 13.8c-.7.3-1.3.7-1.7 1.3-.6.8-.8 1.8-.6 2.8zm13.5 51.9c1.6 0 3 1.3 3 2.9v4.8h-56.4v-4.8c0-1.6 1.3-2.9 3-2.9h50.5zm-5.9-8.5c1.1 0 2 .9 2 2v5.1h-42.6v-5.1c0-1.1.9-2 2-2zm-18.3-1.5h-9l-6.8-6.3c-11.9-11.2-18.8-26.9-18.8-43.3v-8c0-1.9 1.3-3.6 3.3-4.1 5.6-1.4 9.9-5.8 11.4-11.3.5-2 2.2-3.3 4.1-3.3h22.9c1.9 0 3.6 1.3 4.1 3.3 1.5 5.5 5.8 9.9 11.4 11.3 1.9.5 3.3 2.2 3.3 4.1v8c0 3.2-.3 6.5-.9 9.8l-8.4-5.8c-.6-.4-1.3-.6-2-.7-1.5-8.6-9-15.1-17.8-15.1s-18.1 8.1-18.1 18.1 8.1 18.1 18.1 18.1 3.4-.2 5-.7c-.5 1.2-.9 2.5-1.2 3.7h-.2c-1.7-1.3-4-.9-5.2.8s-.7 4 .9 5.2l12.2 8.5-8.2 7.6zm19.3-6.4c.1.6 0 1.2-.4 1.7-.7 1-2.1 1.3-3.1.6l-19-13.2c-.5-.3-.8-.8-.9-1.4s0-1.2.4-1.7c.4-.6 1.1-1 1.8-1s.9.1 1.3.4l19 13.2c.5.3.8.8.9 1.4zm-1.6-3.7-16-11.1c.4-1.8 1-3.7 1.8-5.5 0 0 0 0 0-.1.7-1.4 1.5-2.8 2.4-4.2 2.2-3.1 4.8-5.7 7.7-7.5l16 11.1c-.7 3.3-2.2 6.7-4.3 9.8-2.2 3.1-4.8 5.7-7.7 7.5zm8.9-6.6c.6-.8 1.1-1.7 1.6-2.6l9.2 6.4-3.4 4.9-9.2-6.4c.6-.8 1.3-1.5 1.8-2.4zm30.4 21c-.8 1.1-1.9 1.8-3.2 2.1s-2.7 0-3.7-.8l-15.2-10.5c-.4-.3-.5-.9-.2-1.3l4.7-6.7c.1-.2.3-.3.6-.4.2 0 .5 0 .7.2l15.2 10.5c1.1.8 1.8 1.9 2.1 3.2.2 1.3 0 2.6-.8 3.7zm-57.2-53.3-4.8 4.3-1.4-1.4c-1.3-1.3-3.6-1.3-4.9 0s-1.3 3.5 0 4.9l3.7 3.7c.7.7 1.5 1 2.4 1s1.7-.3 2.3-.9l7.2-6.5c1.4-1.3 1.5-3.5.2-4.9s-3.5-1.5-4.9-.2zm3.7 4-7.2 6.5c-.8.7-2 .7-2.7 0l-3.7-3.7c-.4-.4-.6-.9-.6-1.4s.2-1 .6-1.4.9-.6 1.4-.6 1 .2 1.4.6l1.9 1.9c.3.3.7.3 1 0l5.3-4.8c.8-.7 2.1-.7 2.8.1s.7 2-.1 2.8z"/></svg>